<svg width="38" height="38" viewBox="0 0 38 38" fill="none" xmlns="http://www.w3.org/2000/svg">
<g filter="url(#filter0_d_90_4136)">
<path d="M28.6773 11.4253C28.6779 10.7509 28.4757 10.092 28.0969 9.53407C27.7182 8.97613 27.1805 8.54495 26.5536 8.29652C26.8203 7.67743 26.895 6.99256 26.7681 6.33052C26.6413 5.66849 26.3186 5.05976 25.842 4.58311C25.3654 4.10646 24.7566 3.78383 24.0946 3.65697C23.4325 3.5301 22.7477 3.60485 22.1286 3.87152C21.8791 3.24571 21.4477 2.70911 20.89 2.33108C20.3324 1.95305 19.6742 1.75098 19.0005 1.75098C18.3268 1.75098 17.6685 1.95305 17.1109 2.33108C16.5532 2.70911 16.1218 3.24571 15.8723 3.87152C15.2531 3.60368 14.5677 3.52803 13.9049 3.65437C13.2421 3.78072 12.6326 4.10323 12.1553 4.58011C11.678 5.05699 11.355 5.66625 11.2281 6.3289C11.1012 6.99155 11.1763 7.67704 11.4436 8.29652C10.8169 8.5453 10.2793 8.97656 9.90058 9.53441C9.52183 10.0923 9.31934 10.751 9.31934 11.4253C9.31934 12.0996 9.52183 12.7583 9.90058 13.3161C10.2793 13.874 10.8169 14.3052 11.4436 14.554C11.1769 15.1731 11.1022 15.858 11.229 16.52C11.3559 17.1821 11.6785 17.7908 12.1552 18.2674C12.6318 18.7441 13.2405 19.0667 13.9026 19.1936C14.5646 19.3204 15.2495 19.2457 15.8686 18.979C16.1174 19.6057 16.5486 20.1433 17.1065 20.522C17.6643 20.9008 18.3231 21.1033 18.9973 21.1033C19.6716 21.1033 20.3304 20.9008 20.8882 20.522C21.4461 20.1433 21.8773 19.6057 22.1261 18.979C22.7452 19.2457 23.43 19.3204 24.0921 19.1936C24.7541 19.0667 25.3629 18.7441 25.8395 18.2674C26.3161 17.7908 26.6388 17.1821 26.7656 16.52C26.8925 15.858 26.8178 15.1731 26.5511 14.554C27.1782 14.3058 27.7162 13.8747 28.0952 13.3167C28.4741 12.7588 28.6765 12.0998 28.6761 11.4253" fill="#BDBDBD"/>
<path d="M25.8398 4.58288C25.363 4.10637 24.7542 3.78386 24.0922 3.65706C23.4301 3.53026 22.7452 3.60501 22.1261 3.87163C21.8768 3.24542 21.4454 2.70842 20.8876 2.33009C20.3298 1.95176 19.6713 1.74951 18.9973 1.74951C18.3233 1.74951 17.6649 1.95176 17.1071 2.33009C16.5493 2.70842 16.1178 3.24542 15.8686 3.87163C15.2495 3.60495 14.5646 3.53021 13.9026 3.65707C13.2405 3.78394 12.6318 4.10657 12.1552 4.58321C11.6785 5.05986 11.3559 5.66859 11.229 6.33063C11.1022 6.99266 11.1769 7.67754 11.4436 8.29663C10.8169 8.54541 10.2793 8.97666 9.90058 9.53451C9.52183 10.0924 9.31934 10.7511 9.31934 11.4254C9.31934 12.0997 9.52183 12.7584 9.90058 13.3162C10.2793 13.8741 10.8169 14.3053 11.4436 14.5541C11.1765 15.1731 11.1017 15.858 11.2287 16.52C11.3558 17.182 11.6789 17.7905 12.1561 18.2666L25.8398 4.58288Z" fill="white"/>
<path d="M28.6296 18.8418L32.4134 25.3943C32.5796 25.6818 32.4471 25.878 32.1196 25.818L28.0571 25.1305L26.6496 29.0005C26.5359 29.313 26.3034 29.3343 26.1346 29.0505L22.5059 22.913" fill="#FF808C"/>
<path d="M28.6296 18.8418L32.4134 25.3943C32.5796 25.6818 32.4471 25.878 32.1196 25.818L28.0571 25.1305L26.6496 29.0005C26.5359 29.313 26.3034 29.3343 26.1346 29.0505L22.5059 22.913" stroke="#191919" stroke-width="1.25" stroke-linecap="round" stroke-linejoin="round"/>
<path d="M9.3695 18.8418L5.587 25.3943C5.4195 25.6818 5.55325 25.878 5.88075 25.818L9.94325 25.1305L11.3495 29.0005C11.4632 29.3143 11.6957 29.3343 11.8657 29.0505L15.4945 22.9205" fill="#FF808C"/>
<path d="M9.3695 18.8418L5.587 25.3943C5.4195 25.6818 5.55325 25.878 5.88075 25.818L9.94325 25.1305L11.3495 29.0005C11.4632 29.3143 11.6957 29.3343 11.8657 29.0505L15.4945 22.9205" stroke="#191919" stroke-width="1.25" stroke-linecap="round" stroke-linejoin="round"/>
<path d="M28.6773 11.4253C28.6779 10.7509 28.4757 10.092 28.0969 9.53407C27.7182 8.97613 27.1805 8.54495 26.5536 8.29652C26.8203 7.67743 26.895 6.99256 26.7681 6.33052C26.6413 5.66849 26.3186 5.05976 25.842 4.58311C25.3654 4.10646 24.7566 3.78383 24.0946 3.65697C23.4325 3.5301 22.7477 3.60485 22.1286 3.87152C21.8791 3.24571 21.4477 2.70911 20.89 2.33108C20.3324 1.95305 19.6742 1.75098 19.0005 1.75098C18.3268 1.75098 17.6685 1.95305 17.1109 2.33108C16.5532 2.70911 16.1218 3.24571 15.8723 3.87152C15.2531 3.60368 14.5677 3.52803 13.9049 3.65437C13.2421 3.78072 12.6326 4.10323 12.1553 4.58011C11.678 5.05699 11.355 5.66625 11.2281 6.3289C11.1012 6.99155 11.1763 7.67704 11.4436 8.29652C10.8169 8.5453 10.2793 8.97656 9.90058 9.53441C9.52183 10.0923 9.31934 10.751 9.31934 11.4253C9.31934 12.0996 9.52183 12.7583 9.90058 13.3161C10.2793 13.874 10.8169 14.3052 11.4436 14.554C11.1769 15.1731 11.1022 15.858 11.229 16.52C11.3559 17.1821 11.6785 17.7908 12.1552 18.2674C12.6318 18.7441 13.2405 19.0667 13.9026 19.1936C14.5646 19.3204 15.2495 19.2457 15.8686 18.979C16.1174 19.6057 16.5486 20.1433 17.1065 20.522C17.6643 20.9008 18.3231 21.1033 18.9973 21.1033C19.6716 21.1033 20.3304 20.9008 20.8882 20.522C21.4461 20.1433 21.8773 19.6057 22.1261 18.979C22.7452 19.2457 23.4301 19.3204 24.0921 19.1936C24.7541 19.0667 25.3629 18.7441 25.8395 18.2674C26.3161 17.7908 26.6388 17.1821 26.7656 16.52C26.8925 15.858 26.8178 15.1731 26.5511 14.554C27.1782 14.3058 27.7162 13.8747 28.0952 13.3167C28.4741 12.7588 28.6765 12.0998 28.6761 11.4253" stroke="#191919" stroke-width="1.25" stroke-linecap="round" stroke-linejoin="round"/>
<path d="M16.55 15V14.1017L18.59 11.7979C18.99 11.347 19.3033 10.9841 19.53 10.7094C19.7633 10.4276 19.93 10.181 20.03 9.96962C20.1367 9.75826 20.19 9.53633 20.19 9.30383C20.19 8.92338 20.08 8.631 19.86 8.42668C19.64 8.21532 19.3567 8.10964 19.01 8.10964C18.65 8.10964 18.34 8.21885 18.08 8.43725C17.82 8.64861 17.64 8.95861 17.54 9.36724L16.5 9.0502C16.58 8.63452 16.74 8.27521 16.98 7.97226C17.22 7.66226 17.5133 7.42272 17.86 7.25363C18.2133 7.08454 18.5933 7 19 7C19.4733 7 19.8867 7.09511 20.24 7.28534C20.5933 7.46852 20.8667 7.72567 21.06 8.0568C21.26 8.38793 21.36 8.77191 21.36 9.20872C21.36 9.49758 21.3067 9.77939 21.2 10.0542C21.1 10.3219 20.9433 10.6072 20.73 10.9102C20.5167 11.2061 20.2433 11.5407 19.91 11.9141L18.11 13.9432H21.5V15H16.55Z" fill="#191919"/>
</g>
<defs>
<filter id="filter0_d_90_4136" x="0" y="0.5" width="38" height="38" filterUnits="userSpaceOnUse" color-interpolation-filters="sRGB">
<feFlood flood-opacity="0" result="BackgroundImageFix"/>
<feColorMatrix in="SourceAlpha" type="matrix" values="0 0 0 0 0 0 0 0 0 0 0 0 0 0 0 0 0 0 127 0" result="hardAlpha"/>
<feOffset dy="4"/>
<feGaussianBlur stdDeviation="2"/>
<feComposite in2="hardAlpha" operator="out"/>
<feColorMatrix type="matrix" values="0 0 0 0 0 0 0 0 0 0 0 0 0 0 0 0 0 0 0.25 0"/>
<feBlend mode="normal" in2="BackgroundImageFix" result="effect1_dropShadow_90_4136"/>
<feBlend mode="normal" in="SourceGraphic" in2="effect1_dropShadow_90_4136" result="shape"/>
</filter>
</defs>
</svg>
