<svg width="24" height="25" viewBox="0 0 24 25" fill="none" xmlns="http://www.w3.org/2000/svg">
<g clip-path="url(#clip0_164_5725)">
<g opacity="0.5" filter="url(#filter0_d_164_5725)">
<path d="M3.46447 21.0355C4.92893 22.5 7.28595 22.5 12 22.5C16.714 22.5 19.0711 22.5 20.5355 21.0355C22 19.5711 22 17.214 22 12.5C22 7.78595 22 5.42893 20.5355 3.96447C19.0711 2.5 16.714 2.5 12 2.5C7.28595 2.5 4.92893 2.5 3.46447 3.96447C2 5.42893 2 7.78595 2 12.5C2 17.214 2 19.5711 3.46447 21.0355Z" fill="#A28AE8"/>
</g>
<g filter="url(#filter1_d_164_5725)">
<path d="M17 13.1666C17 17.4333 13.4444 18.5 11.6667 18.5C10.1111 18.5 7 17.4333 7 13.1666C7 11.3109 8.06292 10.1327 8.95593 9.53969C9.36421 9.26858 9.87201 9.44186 9.89841 9.93125C9.95616 11.002 10.7814 11.8622 11.4205 11.0011C12.0054 10.2129 12.2941 9.14267 12.2941 8.49995C12.2941 7.55317 13.2525 6.95153 14.0008 7.5316C15.4593 8.66225 17 10.5558 17 13.1666Z" fill="#A28AE8"/>
</g>
</g>
<defs>
<filter id="filter0_d_164_5725" x="-2" y="2.5" width="28" height="28" filterUnits="userSpaceOnUse" color-interpolation-filters="sRGB">
<feFlood flood-opacity="0" result="BackgroundImageFix"/>
<feColorMatrix in="SourceAlpha" type="matrix" values="0 0 0 0 0 0 0 0 0 0 0 0 0 0 0 0 0 0 127 0" result="hardAlpha"/>
<feOffset dy="4"/>
<feGaussianBlur stdDeviation="2"/>
<feComposite in2="hardAlpha" operator="out"/>
<feColorMatrix type="matrix" values="0 0 0 0 0.0276011 0 0 0 0 0 0 0 0 0 0.109863 0 0 0 0.5 0"/>
<feBlend mode="normal" in2="BackgroundImageFix" result="effect1_dropShadow_164_5725"/>
<feBlend mode="normal" in="SourceGraphic" in2="effect1_dropShadow_164_5725" result="shape"/>
</filter>
<filter id="filter1_d_164_5725" x="3" y="7.30371" width="18" height="19.1963" filterUnits="userSpaceOnUse" color-interpolation-filters="sRGB">
<feFlood flood-opacity="0" result="BackgroundImageFix"/>
<feColorMatrix in="SourceAlpha" type="matrix" values="0 0 0 0 0 0 0 0 0 0 0 0 0 0 0 0 0 0 127 0" result="hardAlpha"/>
<feOffset dy="4"/>
<feGaussianBlur stdDeviation="2"/>
<feComposite in2="hardAlpha" operator="out"/>
<feColorMatrix type="matrix" values="0 0 0 0 0.0276011 0 0 0 0 0 0 0 0 0 0.109863 0 0 0 0.5 0"/>
<feBlend mode="normal" in2="BackgroundImageFix" result="effect1_dropShadow_164_5725"/>
<feBlend mode="normal" in="SourceGraphic" in2="effect1_dropShadow_164_5725" result="shape"/>
</filter>
<clipPath id="clip0_164_5725">
<rect width="24" height="24" fill="white" transform="translate(0 0.5)"/>
</clipPath>
</defs>
</svg>
