<svg width="134" height="99" viewBox="0 0 134 99" fill="none" xmlns="http://www.w3.org/2000/svg">
<g opacity="0.1" clip-path="url(#clip0_167_5766)">
<g opacity="0.5" filter="url(#filter0_d_167_5766)">
<path d="M22.9292 107.49C27.8263 117.101 39.5016 120.894 62.8522 128.481C86.2029 136.068 97.8782 139.862 107.489 134.965C117.1 130.068 120.894 118.392 128.481 95.0418C136.068 71.6912 139.862 60.0159 134.965 50.4047C130.067 40.7936 118.392 37.0001 95.0415 29.413C71.6909 21.8259 60.0156 18.0324 50.4044 22.9295C40.7933 27.8266 36.9998 39.5019 29.4127 62.8526C21.8256 86.2032 18.0321 97.8785 22.9292 107.49Z" fill="#A28AE8"/>
</g>
<g filter="url(#filter1_d_167_5766)">
<path d="M102.641 90.2962C95.774 111.431 76.4451 110.992 67.639 108.131C59.9337 105.627 46.2398 95.3362 53.1068 74.2016C56.0936 65.0092 63.2549 60.884 68.6328 59.3839C71.0915 58.6981 73.3279 60.3737 72.6711 62.8403C71.2338 68.2374 73.9372 73.8261 78.4889 70.5893C82.6548 67.6268 85.8072 62.79 86.8416 59.6063C88.3655 54.9165 94.0811 53.4788 96.854 57.5565C102.259 65.5045 106.843 77.3637 102.641 90.2962Z" fill="#A28AE8"/>
</g>
</g>
<defs>
<filter id="filter0_d_167_5766" x="16.7344" y="20.7344" width="124.425" height="124.425" filterUnits="userSpaceOnUse" color-interpolation-filters="sRGB">
<feFlood flood-opacity="0" result="BackgroundImageFix"/>
<feColorMatrix in="SourceAlpha" type="matrix" values="0 0 0 0 0 0 0 0 0 0 0 0 0 0 0 0 0 0 127 0" result="hardAlpha"/>
<feOffset dy="4"/>
<feGaussianBlur stdDeviation="2"/>
<feComposite in2="hardAlpha" operator="out"/>
<feColorMatrix type="matrix" values="0 0 0 0 0.0276011 0 0 0 0 0 0 0 0 0 0.109863 0 0 0 0.5 0"/>
<feBlend mode="normal" in2="BackgroundImageFix" result="effect1_dropShadow_167_5766"/>
<feBlend mode="normal" in="SourceGraphic" in2="effect1_dropShadow_167_5766" result="shape"/>
</filter>
<filter id="filter1_d_167_5766" x="47.2373" y="55.166" width="61.0427" height="62.3779" filterUnits="userSpaceOnUse" color-interpolation-filters="sRGB">
<feFlood flood-opacity="0" result="BackgroundImageFix"/>
<feColorMatrix in="SourceAlpha" type="matrix" values="0 0 0 0 0 0 0 0 0 0 0 0 0 0 0 0 0 0 127 0" result="hardAlpha"/>
<feOffset dy="4"/>
<feGaussianBlur stdDeviation="2"/>
<feComposite in2="hardAlpha" operator="out"/>
<feColorMatrix type="matrix" values="0 0 0 0 0.0276011 0 0 0 0 0 0 0 0 0 0.109863 0 0 0 0.5 0"/>
<feBlend mode="normal" in2="BackgroundImageFix" result="effect1_dropShadow_167_5766"/>
<feBlend mode="normal" in="SourceGraphic" in2="effect1_dropShadow_167_5766" result="shape"/>
</filter>
<clipPath id="clip0_167_5766">
<rect width="125" height="125" fill="white" transform="translate(38.8193 0.192383) rotate(18)"/>
</clipPath>
</defs>
</svg>
