<svg width="25" height="24" viewBox="0 0 25 24" fill="none" xmlns="http://www.w3.org/2000/svg">
<g opacity="0.5">
<path d="M3.3335 6.38597C3.3335 5.90152 3.67888 5.50879 4.10492 5.50879L6.76916 5.50832C7.29852 5.49306 7.76551 5.11033 7.94564 4.54412C7.95037 4.52923 7.95582 4.51087 7.97535 4.44424L8.09015 4.05256C8.1604 3.81241 8.2216 3.60318 8.30724 3.41617C8.64559 2.67736 9.27157 2.16432 9.99496 2.03297C10.1781 1.99972 10.372 1.99986 10.5946 2.00002H14.0726C14.2952 1.99986 14.4891 1.99972 14.6722 2.03297C15.3956 2.16432 16.0216 2.67736 16.3599 3.41617C16.4456 3.60318 16.5068 3.81241 16.577 4.05256L16.6918 4.44424C16.7113 4.51087 16.7168 4.52923 16.7215 4.54412C16.9017 5.11033 17.4613 5.49353 17.9906 5.50879H20.5621C20.9881 5.50879 21.3335 5.90152 21.3335 6.38597C21.3335 6.87043 20.9881 7.26316 20.5621 7.26316H4.10492C3.67888 7.26316 3.3335 6.87043 3.3335 6.38597Z" fill="#C2C3C6"/>
<path fill-rule="evenodd" clip-rule="evenodd" d="M9.75892 11.4815C10.1711 11.4381 10.5386 11.7547 10.5798 12.1885L11.0798 17.4517C11.121 17.8855 10.8203 18.2724 10.4082 18.3158C9.99602 18.3592 9.62849 18.0426 9.58727 17.6088L9.08727 12.3456C9.04606 11.9118 9.34677 11.5249 9.75892 11.4815Z" fill="#C2C3C6"/>
<path fill-rule="evenodd" clip-rule="evenodd" d="M14.9082 11.4815C15.3203 11.5249 15.621 11.9118 15.5798 12.3456L15.0798 17.6088C15.0386 18.0426 14.6711 18.3592 14.2589 18.3158C13.8468 18.2724 13.5461 17.8855 13.5873 17.4517L14.0873 12.1885C14.1285 11.7547 14.496 11.4381 14.9082 11.4815Z" fill="#C2C3C6"/>
<path opacity="0.5" d="M11.9291 22.0006H12.7379C15.5206 22.0006 16.912 22.0006 17.8166 21.1147C18.7212 20.2288 18.8138 18.7755 18.9989 15.8691L19.2656 11.6812C19.3661 10.1042 19.4163 9.31573 18.9624 8.81607C18.5086 8.31641 17.7422 8.31641 16.2094 8.31641H8.45754C6.92476 8.31641 6.15838 8.31641 5.70455 8.81607C5.25072 9.31573 5.30094 10.1042 5.40137 11.6812L5.66809 15.8691C5.85319 18.7755 5.94574 20.2288 6.85038 21.1147C7.75503 22.0006 9.14638 22.0006 11.9291 22.0006Z" fill="#C2C3C6"/>
</g>
</svg>
