<svg width="1774" height="2019" viewBox="0 0 1774 2019" fill="none" xmlns="http://www.w3.org/2000/svg">
<path fill-rule="evenodd" clip-rule="evenodd" d="M167.747 0H1606.25C1698.51 0 1774 75.4316 1774 167.674V1851.28C1774 1943.52 1698.51 2019 1606.25 2019H167.747C75.4884 2019 0 1943.52 0 1851.28V167.674C0 75.4316 75.4884 0 167.747 0ZM743.396 1110.7C737.762 1200.61 730.147 1290.52 721.696 1380.34C768.001 1380.34 814.394 1380.34 860.7 1380.34C906.961 1380.34 953.355 1380.34 999.748 1380.34C1025.54 1380.34 1036.63 1365.29 1031.97 1335.5C1022.68 1275.64 1013.09 1215.79 1006.17 1155.76C1002.7 1125.75 991.121 1110.7 969.773 1110.7C932.007 1110.7 894.196 1110.7 856.518 1110.7C818.84 1110.7 781.074 1110.7 743.396 1110.7ZM742.075 908.433C780.194 908.433 818.444 908.433 856.518 908.433C894.593 908.433 932.887 908.433 971.049 908.433C992.221 908.433 1004.37 893.426 1008.16 863.324C1015.64 803.472 1024.44 743.708 1033.69 683.855C1038.31 653.753 1027.21 638.79 1000.72 638.79C954.059 638.79 907.357 638.79 860.788 638.79C814.174 638.79 767.517 638.79 720.903 638.79C728.738 728.701 736.265 818.611 742.075 908.433ZM1361.83 1515.1C1381.72 1603.86 1333.92 1649.98 1245.8 1649.98C1103.5 1649.98 961.146 1649.98 818.84 1649.98C676.535 1649.98 534.185 1649.98 391.879 1649.98C427.181 1436.59 526.35 1225.3 523.929 1009.61C521.464 793.174 425.42 582.547 391.879 369.016C534.185 369.016 676.535 369.016 818.84 369.016C961.146 369.016 1103.5 369.016 1245.8 369.016C1335.73 369.016 1382.12 415.005 1362.4 504.035C1347.26 572.469 1320.41 638.834 1295.94 706.3C1271.55 773.59 1248.18 840.616 1232.64 908.433C1222.47 952.882 1204.56 983.381 1172.73 998.344C1203.68 1013.35 1217.54 1043.58 1224.85 1088.25C1236.56 1160.03 1260.5 1230.98 1287.13 1301.83C1313.98 1373.17 1345.59 1442.66 1361.83 1515.1Z" fill="white"/>
</svg>
