<svg width="42" height="42" viewBox="0 0 42 42" fill="none" xmlns="http://www.w3.org/2000/svg">
<rect width="42" height="42" rx="12" fill="#1D1C1F"/>
<path d="M23.5 30.9913V27.5C23.5 26.5654 23.5 26.0981 23.299 25.75C23.1674 25.522 22.978 25.3326 22.75 25.201C22.4019 25 21.9346 25 21 25C20.0654 25 19.5981 25 19.25 25.201C19.022 25.3326 18.8326 25.522 18.701 25.75C18.5 26.0981 18.5 26.5654 18.5 27.5V30.9913H23.5Z" fill="#8E8E8F"/>
<path fill-rule="evenodd" clip-rule="evenodd" d="M14.732 21.0002C13.8413 21.0002 13.0532 20.6242 12.5 20.0331V23.0002C12.5 26.7715 12.5 28.6571 13.6716 29.8287C14.6147 30.7718 16.0204 30.9557 18.5 30.9915H23.5C25.9796 30.9557 27.3853 30.7718 28.3284 29.8287C29.5 28.6571 29.5 26.7715 29.5 23.0002V20.0342C28.9468 20.6246 28.1592 21.0002 27.269 21.0002C25.6973 21.0002 24.3814 19.8093 24.225 18.2455L24.152 17.5176C24.3385 19.3822 22.8742 21.0002 21.0003 21.0002C19.139 21.0002 17.6819 19.404 17.845 17.5554L17.776 18.2455C17.6196 19.8093 16.3037 21.0002 14.732 21.0002ZM23.5 27.5002V30.9915H18.5V27.5002C18.5 26.5656 18.5 26.0983 18.701 25.7502C18.8326 25.5222 19.022 25.3329 19.25 25.2012C19.5981 25.0002 20.0654 25.0002 21 25.0002C21.9346 25.0002 22.4019 25.0002 22.75 25.2012C22.978 25.3329 23.1674 25.5222 23.299 25.7502C23.5 26.0983 23.5 26.5656 23.5 27.5002Z" fill="white"/>
<path d="M18.4998 11H23.4998L24.1515 17.5174C24.338 19.382 22.8737 21 20.9998 21C19.1259 21 17.6616 19.382 17.8481 17.5174L18.4998 11Z" fill="#8E8E8F"/>
<path opacity="0.7" d="M12.3302 14.3513C12.5083 13.4609 12.5974 13.0157 12.7784 12.6548C13.1599 11.8944 13.8463 11.3317 14.6668 11.1067C15.0562 11 15.5102 11 16.4182 11H18.5005L17.776 18.2453C17.6196 19.8091 16.3037 21 14.732 21C12.8016 21 11.3537 19.2339 11.7323 17.3409L12.3302 14.3513Z" fill="white"/>
<path opacity="0.7" d="M29.6703 14.3513C29.4922 13.4609 29.4031 13.0157 29.2221 12.6548C28.8406 11.8944 28.1542 11.3317 27.3337 11.1067C26.9443 11 26.4903 11 25.5823 11H23.5L24.2245 18.2453C24.3809 19.8091 25.6968 21 27.2685 21C29.1989 21 30.6468 19.2339 30.2682 17.3409L29.6703 14.3513Z" fill="white"/>
</svg>
