<svg width="106" height="49" viewBox="0 0 106 49" fill="none" xmlns="http://www.w3.org/2000/svg">
<path fill-rule="evenodd" clip-rule="evenodd" d="M2.2004 11.2124H21.0614C22.2711 11.2124 23.2609 12.2016 23.2609 13.4113V35.4898C23.2609 36.6994 22.2711 37.6892 21.0614 37.6892H2.2004C0.990747 37.6892 0.000976562 36.6994 0.000976562 35.4898V13.4113C0.000976562 12.2016 0.990747 11.2124 2.2004 11.2124ZM9.74805 25.7779C9.67418 26.957 9.57434 28.136 9.46353 29.314C10.0707 29.314 10.679 29.314 11.2861 29.314C11.8926 29.314 12.5009 29.314 13.1092 29.314C13.4474 29.314 13.5929 29.1166 13.5317 28.7259C13.4099 27.941 13.2841 27.1561 13.1935 26.3689C13.1479 25.9753 12.9961 25.7779 12.7162 25.7779C12.221 25.7779 11.7253 25.7779 11.2313 25.7779C10.7372 25.7779 10.2421 25.7779 9.74805 25.7779ZM9.73074 23.1254C10.2305 23.1254 10.7321 23.1254 11.2313 23.1254C11.7305 23.1254 12.2326 23.1254 12.7329 23.1254C13.0105 23.1254 13.1698 22.9286 13.2195 22.5339C13.3176 21.749 13.433 20.9652 13.5542 20.1804C13.6148 19.7856 13.4694 19.5894 13.1219 19.5894C12.5102 19.5894 11.8978 19.5894 11.2872 19.5894C10.6761 19.5894 10.0643 19.5894 9.45314 19.5894C9.55587 20.7684 9.65456 21.9475 9.73074 23.1254ZM17.8567 31.0811C18.1175 32.2452 17.4908 32.85 16.3354 32.85C14.4695 32.85 12.6031 32.85 10.7372 32.85C8.8714 32.85 7.00497 32.85 5.13913 32.85C5.60198 30.0515 6.90225 27.2807 6.8705 24.4522C6.83818 21.6139 5.5789 18.8518 5.13913 16.0516C7.00497 16.0516 8.8714 16.0516 10.7372 16.0516C12.6031 16.0516 14.4695 16.0516 16.3354 16.0516C17.5144 16.0516 18.1227 16.6547 17.8642 17.8222C17.6656 18.7197 17.3136 19.59 16.9927 20.4747C16.673 21.3571 16.3665 22.2361 16.1628 23.1254C16.0295 23.7083 15.7946 24.1083 15.3773 24.3045C15.7831 24.5013 15.9649 24.8978 16.0607 25.4836C16.2142 26.4249 16.5281 27.3552 16.8773 28.2844C17.2293 29.2199 17.6437 30.1312 17.8567 31.0811Z" fill="white"/>
<path d="M25.3877 17.0857H29.004V31.8157H25.3877V17.0857ZM34.6875 28.1994C34.6875 28.5416 34.8606 28.7142 35.2063 28.7142H37.789C38.1347 28.7142 38.3078 28.5416 38.3078 28.1994V24.3217C38.3009 23.9829 38.1277 23.8104 37.789 23.8029H35.2063C34.8606 23.8104 34.6875 23.9829 34.6875 24.3217V28.1994ZM41.9241 30.2632C41.9241 31.2968 41.4093 31.8157 40.3751 31.8157H32.6202C31.5866 31.8157 31.0712 31.2968 31.0712 30.2632V22.2544C31.0712 21.2277 31.5866 20.7089 32.6202 20.7054H40.3751C41.4093 20.7089 41.9241 21.2277 41.9241 22.2544V30.2632ZM43.9919 22.2544C43.9919 21.2202 44.5067 20.7054 45.5404 20.7054H54.3294L52.7769 23.8029H48.1265C47.7808 23.8029 47.6082 23.976 47.6082 24.3217V28.1994C47.6082 28.5416 47.7808 28.7142 48.1265 28.7142H54.3294L52.7769 31.8157H45.5404C44.5067 31.8157 43.9919 31.2968 43.9919 30.2632V22.2544ZM59.4947 31.8157H55.8784V17.0857H59.4947V31.8157ZM62.5962 20.7054H66.7313L63.6298 25.3553L66.6989 31.8157H62.5962L59.7555 25.3553L62.5962 20.7054Z" fill="white"/>
<path d="M71.9001 25.6133V31.8157H68.2832V17.0857H71.9104L71.9208 23.2881H76.5534L76.543 17.0857H80.1593V31.8157H76.5534V25.6133H71.9001ZM91.531 31.8157H83.7756C82.7489 31.8157 82.2341 31.2968 82.2271 30.2632V20.7054H85.8434V28.1994C85.8434 28.5416 86.016 28.7142 86.3617 28.7142H88.9443C89.2906 28.7142 89.4632 28.5416 89.4632 28.1994V20.7054H93.0794V30.2632C93.0656 31.2968 92.5502 31.8157 91.531 31.8157ZM101.865 28.7142C102.211 28.7142 102.384 28.5416 102.384 28.1994V24.3217C102.376 23.976 102.204 23.8029 101.865 23.8029H98.7635V28.7142H101.865ZM104.451 31.8157H95.1473V17.0857H98.7635V20.7054H104.451C105.478 20.7054 105.993 21.2202 106 22.2544V30.2632C106 31.2968 105.485 31.8157 104.451 31.8157Z" fill="white"/>
</svg>
