<svg width="203" height="203" viewBox="0 0 203 203" fill="none" xmlns="http://www.w3.org/2000/svg">
<path fill-rule="evenodd" clip-rule="evenodd" d="M81.1361 27.069C79.0762 28.8244 78.0463 29.7022 76.9463 30.4394C74.4248 32.1294 71.5931 33.3024 68.6152 33.8903C67.3161 34.1468 65.9672 34.2544 63.2693 34.4697C56.491 35.0106 53.1018 35.2811 50.2742 36.2798C43.7342 38.5898 38.59 43.734 36.28 50.2739C35.2813 53.1015 35.0109 56.4907 34.4699 63.2691C34.2546 65.9669 34.147 67.3158 33.8905 68.6149C33.3026 71.5929 32.1297 74.4246 30.4397 76.9461C29.7024 78.046 28.8247 79.076 27.0693 81.1358C22.6588 86.3113 20.4535 88.8991 19.1603 91.6047C16.1692 97.8626 16.1692 105.138 19.1603 111.395C20.4535 114.101 22.6587 116.689 27.0693 121.864C28.8245 123.924 29.7024 124.954 30.4397 126.054C32.1297 128.576 33.3026 131.407 33.8905 134.385C34.147 135.684 34.2546 137.033 34.4699 139.731C35.0109 146.509 35.2813 149.899 36.28 152.726C38.59 159.266 43.7342 164.41 50.2742 166.72C53.1018 167.719 56.491 167.99 63.2693 168.53C65.9672 168.746 67.3161 168.853 68.6152 169.11C71.5931 169.698 74.4248 170.871 76.9463 172.561C78.0463 173.298 79.0762 174.176 81.1361 175.931C86.3116 180.342 88.8994 182.547 91.605 183.84C97.8628 186.831 105.138 186.831 111.396 183.84C114.101 182.547 116.689 180.342 121.865 175.931C123.924 174.176 124.954 173.298 126.054 172.561C128.576 170.871 131.408 169.698 134.385 169.11C135.685 168.853 137.033 168.746 139.731 168.53C146.51 167.99 149.899 167.719 152.726 166.72C159.266 164.41 164.411 159.266 166.721 152.726C167.719 149.899 167.99 146.509 168.531 139.731C168.746 137.033 168.854 135.684 169.11 134.385C169.698 131.407 170.871 128.576 172.561 126.054C173.298 124.954 174.176 123.924 175.931 121.864C180.342 116.689 182.547 114.101 183.84 111.395C186.831 105.138 186.831 97.8626 183.84 91.6047C182.547 88.8991 180.342 86.3114 175.931 81.1358C174.176 79.076 173.298 78.046 172.561 76.946C170.871 74.4246 169.698 71.5929 169.11 68.6149C168.854 67.3158 168.746 65.9669 168.531 63.2691C167.99 56.4907 167.719 53.1015 166.721 50.2739C164.411 43.734 159.266 38.5898 152.726 36.2798C149.899 35.2811 146.51 35.0106 139.731 34.4697C137.033 34.2544 135.685 34.1468 134.385 33.8903C131.408 33.3024 128.576 32.1294 126.054 30.4394C124.954 29.7022 123.924 28.8245 121.865 27.069C116.689 22.6585 114.101 20.4532 111.396 19.16C105.138 16.169 97.8628 16.169 91.605 19.16C88.8994 20.4532 86.3115 22.6585 81.1361 27.069ZM138.493 83.4258C141.181 80.7374 141.181 76.3788 138.493 73.6905C135.804 71.0021 131.446 71.0021 128.757 73.6905L87.7324 114.715L74.243 101.226C71.5547 98.5377 67.196 98.5377 64.5077 101.226C61.8194 103.914 61.8194 108.273 64.5077 110.961L82.8648 129.318C85.5531 132.007 89.9117 132.007 92.6001 129.318L138.493 83.4258Z" fill="#7D51FF"/>
</svg>
