<svg width="390" height="299" viewBox="0 0 390 299" fill="none" xmlns="http://www.w3.org/2000/svg">
<path opacity="0.45" d="M-291 298C-283.415 249.879 -160.922 248.469 -154.694 157.776C-141.592 -33.0217 185.1 372.217 214.23 264.208C272.384 48.5843 885.035 82.9125 898.98 48.5844M-264.336 133.878C-247.633 177.554 -193.632 249.644 -111.25 188.588C-8.27345 112.27 47.3524 -38.5292 168.258 10.6643C289.164 59.8578 422.942 246.057 487.303 128.361M-289.73 284.12C-281.711 240.37 -162.479 242.46 -152.625 153.178C-135.243 -32.1679 178.54 346.593 212.041 246.07C273.183 43.0562 863.031 84.6165 879.376 46.3184M-288.461 270.24C-280.007 230.861 -164.037 236.451 -150.556 148.58C-128.895 -31.3141 171.981 320.968 209.852 227.931C273.983 37.5282 841.026 86.3204 859.773 44.0524M-287.191 256.359C-278.303 221.353 -165.594 230.442 -148.487 143.983C-122.546 -30.4604 165.422 295.344 207.663 209.793C274.781 32.0002 819.022 88.0243 840.169 41.7864M-285.921 242.48C-276.599 211.844 -167.152 224.434 -146.419 139.386C-116.198 -29.6062 158.862 269.72 205.474 191.655C275.581 26.4726 797.018 89.7287 820.565 39.5209M-284.651 228.599C-274.895 202.335 -168.71 218.425 -144.35 134.788C-109.849 -28.7524 152.303 244.096 203.284 173.517C276.38 20.9445 775.013 91.4327 800.962 37.2549M-283.382 214.719C-273.191 192.826 -170.267 212.416 -142.281 130.19C-103.501 -27.8987 145.743 218.472 201.095 155.378C277.179 15.4165 753.009 93.1366 781.358 34.9889M-282.112 200.839C-271.487 183.317 -171.825 206.407 -140.212 125.593C-97.1522 -27.0449 139.184 192.848 198.906 137.24C277.978 9.88848 731.004 94.8405 761.754 32.7229M-280.842 186.959C-269.784 173.808 -173.383 200.398 -138.144 120.995C-90.8038 -26.1911 132.625 167.224 196.717 119.102C278.777 4.36047 709 96.5445 742.151 30.4569M-279.573 173.079C-268.08 164.3 -174.94 194.389 -136.075 116.398C-84.4554 -25.3374 126.065 141.599 194.528 100.963C279.576 -1.16758 686.995 98.2484 722.547 28.1909M-278.303 159.198C-266.376 154.791 -176.498 188.38 -134.006 111.8C-78.1067 -24.4836 119.506 115.975 192.339 82.8248C280.375 -6.69561 664.991 99.9524 702.943 25.925M-277.033 145.319C-264.672 145.282 -178.055 182.372 -131.938 107.203C-71.7584 -23.6294 112.946 90.3515 190.15 64.6869C281.174 -12.2232 642.986 101.657 683.339 23.6594M-275.764 131.438C-262.968 135.773 -179.613 176.363 -129.869 102.605C-65.4097 -22.7756 106.387 64.7273 187.961 46.5485C281.973 -17.7512 620.982 103.361 663.736 21.3934M-274.494 120.989C-261.264 129.695 -181.171 173.785 -127.8 101.439C-59.0613 -18.491 99.8276 42.5339 185.771 31.8409C282.772 -19.8484 598.977 108.495 644.132 22.5583M-273.224 117.534C-259.56 130.611 -182.728 178.201 -125.731 107.266C-52.7129 -7.21229 93.2682 27.3347 183.582 24.1275C283.571 -14.9515 576.973 120.624 624.528 30.7173M-271.954 115.592C-257.856 133.041 -184.286 184.13 -123.663 114.607C-46.3643 5.57975 86.7089 13.6488 181.393 17.9274C284.37 -8.54124 554.969 134.267 604.925 40.3895M-270.685 117.366C-256.153 139.186 -185.844 193.775 -121.594 125.663C-40.0159 22.0878 80.1495 3.67883 179.204 15.4433C285.169 1.58498 532.964 151.625 585.321 53.7778M-269.415 120.615C-254.449 146.807 -187.401 204.896 -119.525 138.195C-33.6675 40.0711 73.5899 -4.81583 177.015 14.4344C285.968 13.1865 510.96 170.458 565.717 68.6414M-268.145 123.914C-252.745 154.476 -188.959 216.066 -117.456 150.776C-27.3189 58.1034 67.0306 -13.2614 174.826 13.4746C286.767 24.8371 488.955 189.341 546.114 83.554M-266.876 127.229C-251.041 162.162 -190.517 227.252 -115.388 163.374C-20.9705 76.1523 60.4712 -21.6906 172.636 12.5313C287.566 36.5041 466.951 208.24 526.51 98.4831M-265.606 130.551C-249.337 169.856 -192.074 238.446 -113.319 175.979C-14.6218 94.2088 53.9119 -30.112 170.447 11.5957C288.365 48.1788 444.947 227.146 506.906 113.42" stroke="#61656B" stroke-width="0.359871"/>
</svg>
