<svg width="18" height="22" viewBox="0 0 18 22" fill="none" xmlns="http://www.w3.org/2000/svg">
<path fill-rule="evenodd" clip-rule="evenodd" d="M7.49223 1.12109e-06H9.59623C10.4947 -2.8264e-05 11.2439 -5.2765e-05 11.8387 0.0799135C12.4665 0.164318 13.0333 0.349989 13.4888 0.805459C13.9442 1.26093 14.1299 1.82773 14.2143 2.45552C14.2943 3.05031 14.2943 3.79953 14.2942 4.69801L14.2942 6.03108L15.1337 6.48883C16.3387 7.14587 17.0885 8.4087 17.0885 9.78118V14.7188C17.0885 16.0913 16.3387 17.3541 15.1337 18.0112L10.3395 20.6254C9.22042 21.2355 7.86804 21.2355 6.74899 20.6254L1.95476 18.0112C0.749776 17.3541 0 16.0913 0 14.7188V9.78118C0 8.4087 0.749778 7.14587 1.95476 6.48883L2.79423 6.03108L2.79423 4.698C2.7942 3.79952 2.79417 3.0503 2.87414 2.45552C2.95854 1.82773 3.14421 1.26093 3.59968 0.805459C4.05515 0.349989 4.62195 0.164318 5.24975 0.0799135C5.84453 -5.2765e-05 6.59375 -2.8264e-05 7.49223 1.12109e-06ZM4.29423 5.21317L6.74899 3.87465C7.86804 3.26446 9.22042 3.26446 10.3395 3.87465L12.7942 5.21317V4.75C12.7942 3.78599 12.7926 3.13843 12.7277 2.65539C12.6657 2.19393 12.5584 1.99644 12.4281 1.86612C12.2978 1.7358 12.1003 1.62858 11.6388 1.56654C11.1558 1.5016 10.5082 1.5 9.54423 1.5H7.54423C6.58022 1.5 5.93266 1.5016 5.44962 1.56654C4.98816 1.62858 4.79066 1.7358 4.66035 1.86612C4.53003 1.99644 4.42281 2.19393 4.36076 2.65539C4.29582 3.13843 4.29423 3.78599 4.29423 4.75V5.21317ZM9.62137 5.19159C8.94994 4.82548 8.13852 4.82548 7.46708 5.19159L2.67286 7.80577C1.94987 8.2 1.5 8.9577 1.5 9.78118V14.7188C1.5 15.5423 1.94987 16.3 2.67285 16.6942L7.46708 19.3084C8.13851 19.6745 8.94994 19.6745 9.62138 19.3084L14.4156 16.6942C15.1386 16.3 15.5885 15.5423 15.5885 14.7188V9.78118C15.5885 8.9577 15.1386 8.2 14.4156 7.80577L9.62137 5.19159ZM8.54423 10.2846C8.48609 10.3853 8.42145 10.5012 8.34527 10.6378L8.24696 10.8142C8.24002 10.8267 8.23259 10.8403 8.22462 10.8548C8.14609 10.9984 8.01604 11.2363 7.7992 11.4009C7.57782 11.5689 7.31152 11.6267 7.15581 11.6606C7.14021 11.6639 7.12573 11.6671 7.11251 11.6701L6.9216 11.7133C6.74643 11.7529 6.60374 11.7853 6.48173 11.8159C6.56109 11.9136 6.66417 12.0349 6.79826 12.1917L6.9284 12.3439C6.93764 12.3547 6.94768 12.3662 6.95837 12.3786C7.06631 12.5029 7.24057 12.7036 7.32116 12.9628C7.40079 13.2188 7.37332 13.4826 7.35599 13.649C7.35427 13.6656 7.35264 13.6812 7.35123 13.6958L7.33155 13.8988C7.31331 14.0871 7.29912 14.2373 7.28968 14.3595C7.39389 14.3136 7.51243 14.2591 7.65326 14.1943L7.832 14.112C7.84431 14.1063 7.85779 14.0999 7.87237 14.0931C8.01587 14.0254 8.26556 13.9076 8.54423 13.9076C8.8229 13.9076 9.07259 14.0254 9.21609 14.0931C9.23067 14.0999 9.24415 14.1063 9.25646 14.112L9.4352 14.1943C9.57603 14.2591 9.69457 14.3136 9.79878 14.3595C9.78933 14.2373 9.77515 14.0871 9.75691 13.8988L9.73723 13.6958C9.73582 13.6812 9.73419 13.6656 9.73246 13.649C9.71513 13.4826 9.68766 13.2189 9.7673 12.9628C9.84789 12.7036 10.0222 12.5029 10.1301 12.3786C10.1408 12.3662 10.1508 12.3547 10.1601 12.3439L10.2902 12.1917C10.4243 12.0349 10.5274 11.9136 10.6067 11.8159C10.4847 11.7853 10.342 11.7529 10.1669 11.7133L9.97595 11.6701C9.96273 11.6671 9.94824 11.6639 9.93264 11.6606C9.77693 11.6267 9.51064 11.5689 9.28926 11.4009C9.07241 11.2363 8.94237 10.9984 8.86383 10.8548C8.85587 10.8402 8.84844 10.8267 8.84149 10.8142L8.74319 10.6378C8.66701 10.5012 8.60236 10.3853 8.54423 10.2846ZM7.55772 9.04979C7.72989 8.82497 8.04253 8.50016 8.54423 8.50016C9.04593 8.50016 9.35857 8.82497 9.53073 9.04979C9.69506 9.26437 9.86054 9.5614 10.0302 9.86593C10.0379 9.87977 10.0456 9.89363 10.0534 9.9075L10.1517 10.0839C10.1745 10.1248 10.1924 10.1569 10.2081 10.1845C10.2355 10.1909 10.2672 10.1981 10.307 10.2071L10.4979 10.2503C10.5135 10.2538 10.5292 10.2573 10.5448 10.2609C10.8726 10.3349 11.1984 10.4086 11.4485 10.5071C11.7246 10.6159 12.0989 10.8279 12.2432 11.2918C12.3849 11.7475 12.2061 12.1335 12.0499 12.3816C11.9053 12.6112 11.6856 12.868 11.4607 13.1309C11.4505 13.1428 11.4404 13.1547 11.4302 13.1666L11.3001 13.3188C11.2656 13.3591 11.2396 13.3895 11.2177 13.4158C11.2207 13.4522 11.2248 13.4945 11.2302 13.5511L11.2499 13.7541C11.2514 13.7696 11.2529 13.7851 11.2544 13.8005C11.2886 14.1525 11.3216 14.4926 11.3095 14.7646C11.2968 15.0499 11.2283 15.4817 10.8412 15.7756C10.4418 16.0788 10.0007 16.0127 9.72093 15.9326C9.46319 15.8587 9.15866 15.7184 8.85193 15.5771C8.83724 15.5703 8.82255 15.5635 8.80785 15.5568L8.62911 15.4745C8.59566 15.4591 8.56818 15.4464 8.54423 15.4356C8.52028 15.4464 8.49279 15.4591 8.45935 15.4745L8.2806 15.5568C8.26591 15.5635 8.25121 15.5703 8.23652 15.5771C7.9298 15.7184 7.62527 15.8587 7.36753 15.9326C7.08781 16.0127 6.6467 16.0788 6.24729 15.7756C5.86012 15.4817 5.79166 15.0499 5.77895 14.7646C5.76684 14.4926 5.79986 14.1525 5.83404 13.8006C5.83554 13.7851 5.83704 13.7696 5.83854 13.7541L5.85822 13.5511C5.86371 13.4945 5.86779 13.4522 5.87078 13.4158C5.84888 13.3895 5.82289 13.3591 5.78841 13.3188L5.65826 13.1666C5.64808 13.1547 5.6379 13.1428 5.62773 13.1309C5.40282 12.868 5.18313 12.6112 5.03859 12.3816C4.8824 12.1335 4.70357 11.7475 4.84528 11.2918C4.98954 10.8279 5.36385 10.6159 5.63999 10.5071C5.89007 10.4086 6.21585 10.3349 6.54366 10.2609C6.5593 10.2573 6.57494 10.2538 6.59058 10.2503L6.78148 10.2071C6.82121 10.1981 6.853 10.1909 6.88033 10.1845C6.89602 10.1569 6.91398 10.1248 6.93678 10.0839L7.03509 9.9075C7.04281 9.89363 7.05053 9.87978 7.05825 9.86593C7.22791 9.56141 7.3934 9.26437 7.55772 9.04979Z" fill="#2BFF2B"/>
</svg>
