<svg width="22" height="22" viewBox="0 0 22 22" fill="none" xmlns="http://www.w3.org/2000/svg">
<path fill-rule="evenodd" clip-rule="evenodd" d="M9.33137 4.00679e-06L9.31096 1.98023e-06C9.19744 -1.53051e-05 9.10909 -2.88351e-05 9.02551 0.00503351C7.96507 0.0692565 7.03648 0.738547 6.64021 1.72425C6.60898 1.80196 6.58104 1.8858 6.54516 1.99351L6.53872 2.01283L6.51306 2.08981C6.49407 2.14678 6.48878 2.16248 6.48417 2.1752C6.3243 2.61717 5.79303 2.986 5.231 3.00024L3.4116 3.08925C2.62537 3.18163 1.95216 3.37833 1.38325 3.84123C1.18454 4.00291 1.00292 4.18454 0.841231 4.38325C0.37833 4.95216 0.181634 5.62537 0.0892516 6.4116C-2.41324e-05 7.17138 -1.15547e-05 8.12673 4.12129e-06 9.31166L4.47892e-06 9.35893L2.21394e-06 9.3902C-2.81844e-05 9.67411 -5.66747e-05 9.94029 0.022683 10.1644C0.0478445 10.4124 0.105737 10.6757 0.263864 10.93C0.315263 11.0127 0.373469 11.0909 0.437876 11.1639C0.606989 11.3555 0.80339 11.4791 1.00048 11.5705C1.00336 13.1857 1.02381 14.8182 1.16875 16.2164C1.25368 17.0356 1.38401 17.8048 1.59074 18.4606C1.79411 19.1057 2.09441 19.7165 2.56975 20.139C3.39319 20.8709 4.42956 21.1936 5.72328 21.3483C6.9932 21.5 8.62087 21.5 10.6988 21.5H10.8012C12.8791 21.5 14.5068 21.5 15.7767 21.3483C17.0704 21.1936 18.1068 20.8709 18.9303 20.139C19.4056 19.7165 19.7059 19.1057 19.9093 18.4606C20.116 17.8048 20.2463 17.0356 20.3313 16.2164C20.4762 14.8182 20.4966 13.1857 20.4995 11.5705C20.6966 11.4791 20.893 11.3555 21.0621 11.1639C21.1265 11.0909 21.1847 11.0127 21.2361 10.93C21.3943 10.6757 21.4522 10.4124 21.4773 10.1644C21.5001 9.94029 21.5 9.67412 21.5 9.39021L21.5 9.31165C21.5 8.12672 21.5 7.17138 21.4108 6.4116C21.3184 5.62537 21.1217 4.95216 20.6588 4.38325C20.4971 4.18454 20.3155 4.00291 20.1168 3.84123C19.5478 3.37833 18.8746 3.18163 18.0884 3.08925L16.269 3.00024C15.7072 2.98601 15.1762 2.61731 15.0163 2.17518C15.0117 2.16254 15.0063 2.14649 14.9874 2.08981L14.9553 1.99347C14.9194 1.88578 14.8915 1.80195 14.8602 1.72426C14.464 0.738549 13.5354 0.0692565 12.475 0.00503351C12.3914 -2.88351e-05 12.303 -1.53051e-05 12.1895 1.98023e-06L9.33137 4.00679e-06ZM6.32032 4.5L6.35893 4.5H15.1411L15.1797 4.5C16.4024 4.50004 17.2582 4.50202 17.9134 4.579C18.559 4.65486 18.9119 4.79466 19.1701 5.00474C19.2893 5.10175 19.3983 5.21072 19.4953 5.32995C19.7053 5.58814 19.8451 5.94102 19.921 6.58664C19.9988 7.24864 20 8.1156 20 9.35893C20 9.68503 19.9991 9.8738 19.985 10.013C19.9766 10.0952 19.9661 10.1286 19.9622 10.1382C19.9549 10.1499 19.9467 10.1609 19.9376 10.1712C19.9295 10.1777 19.9006 10.1974 19.8242 10.229C19.695 10.2826 19.5144 10.3377 19.2021 10.4314L14 11.992V11.75C14 11.0596 13.4404 10.5 12.75 10.5H8.75C8.05965 10.5 7.5 11.0596 7.5 11.75V11.992L2.29792 10.4314C1.98557 10.3377 1.80502 10.2826 1.67578 10.229C1.59942 10.1974 1.57047 10.1777 1.56236 10.1712L7.5 11.992L1.53785 10.1382C1.53391 10.1286 1.52336 10.0952 1.51502 10.013C1.5009 9.8738 1.5 9.68503 1.5 9.35893C1.5 8.1156 1.50122 7.24864 1.579 6.58664C1.65487 5.94102 1.79466 5.58814 2.00474 5.32995C2.10175 5.21072 2.21072 5.10175 2.32995 5.00474C2.58814 4.79466 2.94102 4.65486 3.58665 4.579C4.24176 4.50202 5.09762 4.50004 6.32032 4.5ZM9.33137 1.5C9.18799 1.5 9.14845 1.50034 9.11618 1.50229C8.63417 1.53148 8.21208 1.83571 8.03196 2.28375C8.01991 2.31374 8.00708 2.35117 7.96174 2.48717L7.93338 2.57225C7.91835 2.61736 7.90665 2.65246 7.89472 2.68544C7.85527 2.79452 7.80863 2.89944 7.75558 3H13.7449C13.6918 2.89945 13.6452 2.79453 13.6057 2.68547C13.5938 2.65249 13.5821 2.61736 13.5671 2.57225L13.5387 2.48717C13.4934 2.35117 13.4805 2.31374 13.4685 2.28375C13.2884 1.83571 12.8663 1.53148 12.3843 1.50229C12.352 1.50034 12.3125 1.5 12.1691 1.5H9.33137ZM2.5021 12.0587C2.5089 13.4955 2.53782 14.8759 2.66076 16.0618C2.74059 16.8318 2.85738 17.4894 3.02134 18.0096C3.18867 18.5404 3.38263 18.8546 3.5663 19.0179C4.06088 19.4575 4.74418 19.7206 5.90128 19.8589C7.07178 19.9987 8.60979 20 10.75 20C12.8902 20 14.4282 19.9987 15.5987 19.8589C16.7558 19.7206 17.4391 19.4575 17.9337 19.0179C18.1174 18.8546 18.3113 18.5404 18.4787 18.0096C18.6426 17.4894 18.7594 16.8318 18.8392 16.0618C18.9622 14.8759 18.9911 13.4955 18.9979 12.0587L14 13.558V13.9115C14 14.4226 13.6888 14.8823 13.2142 15.0721L12.5141 15.3521C11.3817 15.8051 10.1184 15.8051 8.9859 15.3521L8.28577 15.0721C7.81119 14.8823 7.5 14.4226 7.5 13.9115V13.558L2.5021 12.0587ZM9 12V13.7422L9.54298 13.9594C10.3178 14.2694 11.1822 14.2694 11.957 13.9594L12.5 13.7422V12H9Z" fill="#2BFF2B"/>
</svg>
