<svg width="32" height="32" viewBox="0 0 32 32" fill="none" xmlns="http://www.w3.org/2000/svg">
<rect width="32" height="32" rx="16" fill="#3401CC"/>
<path opacity="0.4" d="M16 24.275C11.8 24.275 8.375 20.8583 8.375 16.65V15.0833C8.375 14.7583 8.64167 14.5 8.95833 14.5C9.275 14.5 9.54167 14.7667 9.54167 15.0833V16.65C9.54167 20.2083 12.4333 23.1 15.9917 23.1C19.55 23.1 22.4417 20.2083 22.4417 16.65V15.0833C22.4417 14.7583 22.7083 14.5 23.025 14.5C23.3417 14.5 23.6083 14.7667 23.6083 15.0833V16.65C23.625 20.8583 20.2 24.275 16 24.275Z" fill="#C0B0EF"/>
<path d="M16.0003 7.6665C13.2003 7.6665 10.917 9.94984 10.917 12.7498V16.6582C10.917 19.4582 13.2003 21.7415 16.0003 21.7415C18.8003 21.7415 21.0837 19.4582 21.0837 16.6582V12.7498C21.0837 9.94984 18.8003 7.6665 16.0003 7.6665ZM17.817 14.8248C17.7587 15.0498 17.5503 15.1998 17.3253 15.1998C17.2837 15.1998 17.2337 15.1915 17.192 15.1832C16.342 14.9498 15.442 14.9498 14.592 15.1832C14.317 15.2582 14.042 15.0998 13.967 14.8248C13.892 14.5582 14.0503 14.2748 14.3253 14.1998C15.3503 13.9165 16.4337 13.9165 17.4587 14.1998C17.7337 14.2748 17.892 14.5498 17.817 14.8248ZM18.5253 12.5165C18.4503 12.7248 18.2587 12.8498 18.0503 12.8498C17.992 12.8498 17.9337 12.8415 17.8753 12.8165C16.6003 12.3498 15.2003 12.3498 13.9253 12.8165C13.6587 12.9165 13.367 12.7832 13.267 12.5165C13.1753 12.2582 13.3087 11.9665 13.5753 11.8665C15.0753 11.3248 16.7253 11.3248 18.217 11.8665C18.4837 11.9665 18.617 12.2582 18.5253 12.5165Z" fill="#C0B0EF"/>
</svg>
