<svg width="32" height="32" viewBox="0 0 32 32" fill="none" xmlns="http://www.w3.org/2000/svg">
<rect width="32" height="32" rx="16" fill="#3401CC"/>
<path d="M7.66699 17.6667C7.66699 14.7445 7.66699 13.2834 8.42363 12.2999C8.56214 12.1199 8.7169 11.9548 8.88568 11.8071C9.80764 11 11.1774 11 13.917 11H18.0837C20.8232 11 22.193 11 23.115 11.8071C23.2837 11.9548 23.4385 12.1199 23.577 12.2999C24.3337 13.2834 24.3337 14.7445 24.3337 17.6667C24.3337 20.5888 24.3337 22.05 23.577 23.0334C23.4385 23.2134 23.2837 23.3785 23.115 23.5262C22.193 24.3333 20.8232 24.3333 18.0837 24.3333H13.917C11.1774 24.3333 9.80764 24.3333 8.88568 23.5262C8.7169 23.3785 8.56214 23.2134 8.42363 23.0334C7.66699 22.05 7.66699 20.5888 7.66699 17.6667Z" stroke="#C0B0EF" stroke-width="1.5"/>
<path d="M19.3337 10.9998C19.3337 9.42849 19.3337 8.64281 18.8455 8.15466C18.3573 7.6665 17.5717 7.6665 16.0003 7.6665C14.429 7.6665 13.6433 7.6665 13.1552 8.15466C12.667 8.64281 12.667 9.42849 12.667 10.9998" stroke="#C0B0EF" stroke-width="1.5" stroke-linecap="round" stroke-linejoin="round"/>
<path d="M15.9997 15.1668C15.0792 15.1668 14.333 15.7265 14.333 16.4168C14.333 17.1072 15.0792 17.6668 15.9997 17.6668C16.9202 17.6668 17.6663 18.2265 17.6663 18.9168C17.6663 19.6072 16.9202 20.1668 15.9997 20.1668M15.9997 15.1668C16.7253 15.1668 17.3427 15.5147 17.5715 16.0002M15.9997 15.1668V14.3335M15.9997 20.1668C15.274 20.1668 14.6567 19.819 14.4278 19.3335M15.9997 20.1668V21.0002" stroke="#EBE6FA" stroke-width="1.5" stroke-linecap="round"/>
<path d="M11.0003 16H7.66699" stroke="#C0B0EF" stroke-width="1.5" stroke-linecap="round"/>
<path d="M24.3333 16H21" stroke="#C0B0EF" stroke-width="1.5" stroke-linecap="round"/>
</svg>
