<svg width="30" height="31" viewBox="0 0 30 31" fill="none" xmlns="http://www.w3.org/2000/svg">
<path d="M24.6773 11.4258C24.6779 10.7514 24.4757 10.0925 24.0969 9.53456C23.7182 8.97662 23.1805 8.54544 22.5536 8.29701C22.8203 7.67792 22.895 6.99305 22.7681 6.33101C22.6413 5.66897 22.3186 5.06025 21.842 4.5836C21.3654 4.10695 20.7566 3.78432 20.0946 3.65746C19.4325 3.53059 18.7477 3.60534 18.1286 3.87201C17.8791 3.2462 17.4477 2.7096 16.89 2.33157C16.3324 1.95354 15.6742 1.75146 15.0005 1.75146C14.3268 1.75146 13.6685 1.95354 13.1109 2.33157C12.5532 2.7096 12.1218 3.2462 11.8723 3.87201C11.2531 3.60417 10.5677 3.52852 9.90489 3.65486C9.24213 3.78121 8.63261 4.10372 8.15532 4.5806C7.67804 5.05748 7.35501 5.66673 7.2281 6.32939C7.1012 6.99204 7.17627 7.67753 7.44359 8.29701C6.81688 8.54579 6.27933 8.97704 5.90058 9.5349C5.52183 10.0927 5.31934 10.7515 5.31934 11.4258C5.31934 12.1 5.52183 12.7588 5.90058 13.3166C6.27933 13.8745 6.81688 14.3057 7.44359 14.5545C7.17691 15.1736 7.10217 15.8585 7.22903 16.5205C7.35589 17.1826 7.67852 17.7913 8.15517 18.2679C8.63182 18.7446 9.24055 19.0672 9.90259 19.1941C10.5646 19.3209 11.2495 19.2462 11.8686 18.9795C12.1174 19.6062 12.5486 20.1438 13.1065 20.5225C13.6643 20.9013 14.3231 21.1038 14.9973 21.1038C15.6716 21.1038 16.3304 20.9013 16.8882 20.5225C17.4461 20.1438 17.8773 19.6062 18.1261 18.9795C18.7452 19.2462 19.43 19.3209 20.0921 19.1941C20.7541 19.0672 21.3629 18.7446 21.8395 18.2679C22.3161 17.7913 22.6388 17.1826 22.7656 16.5205C22.8925 15.8585 22.8178 15.1736 22.5511 14.5545C23.1782 14.3063 23.7162 13.8752 24.0952 13.3172C24.4741 12.7593 24.6765 12.1002 24.6761 11.4258" fill="#FFAC5E"/>
<path d="M21.8398 4.58288C21.363 4.10637 20.7542 3.78386 20.0922 3.65706C19.4301 3.53026 18.7452 3.60501 18.1261 3.87163C17.8768 3.24542 17.4454 2.70842 16.8876 2.33009C16.3298 1.95176 15.6713 1.74951 14.9973 1.74951C14.3233 1.74951 13.6649 1.95176 13.1071 2.33009C12.5493 2.70842 12.1178 3.24542 11.8686 3.87163C11.2495 3.60495 10.5646 3.53021 9.90259 3.65707C9.24055 3.78394 8.63182 4.10657 8.15517 4.58321C7.67852 5.05986 7.35589 5.66859 7.22903 6.33063C7.10217 6.99266 7.17691 7.67754 7.44359 8.29663C6.81688 8.54541 6.27933 8.97666 5.90058 9.53451C5.52183 10.0924 5.31934 10.7511 5.31934 11.4254C5.31934 12.0997 5.52183 12.7584 5.90058 13.3162C6.27933 13.8741 6.81688 14.3053 7.44359 14.5541C7.17654 15.1731 7.10168 15.858 7.22873 16.52C7.35579 17.182 7.67888 17.7905 8.15609 18.2666L21.8398 4.58288Z" fill="#FFDCBF"/>
<path d="M24.6296 18.8418L28.4134 25.3943C28.5796 25.6818 28.4471 25.878 28.1196 25.818L24.0571 25.1305L22.6496 29.0005C22.5359 29.313 22.3034 29.3343 22.1346 29.0505L18.5059 22.913" fill="#FF808C"/>
<path d="M24.6296 18.8418L28.4134 25.3943C28.5796 25.6818 28.4471 25.878 28.1196 25.818L24.0571 25.1305L22.6496 29.0005C22.5359 29.313 22.3034 29.3343 22.1346 29.0505L18.5059 22.913" stroke="#191919" stroke-width="1.25" stroke-linecap="round" stroke-linejoin="round"/>
<path d="M5.36999 18.8418L1.58749 25.3943C1.41999 25.6818 1.55374 25.878 1.88124 25.818L5.94374 25.1305L7.34999 29.0005C7.46374 29.3143 7.69624 29.3343 7.86624 29.0505L11.495 22.9205" fill="#FF808C"/>
<path d="M5.36999 18.8418L1.58749 25.3943C1.41999 25.6818 1.55374 25.878 1.88124 25.818L5.94374 25.1305L7.34999 29.0005C7.46374 29.3143 7.69624 29.3343 7.86624 29.0505L11.495 22.9205" stroke="#191919" stroke-width="1.25" stroke-linecap="round" stroke-linejoin="round"/>
<path d="M24.6773 11.4258C24.6779 10.7514 24.4757 10.0925 24.0969 9.53456C23.7182 8.97662 23.1805 8.54544 22.5536 8.29701C22.8203 7.67792 22.895 6.99305 22.7681 6.33101C22.6413 5.66897 22.3186 5.06025 21.842 4.5836C21.3654 4.10695 20.7566 3.78432 20.0946 3.65746C19.4325 3.53059 18.7477 3.60534 18.1286 3.87201C17.8791 3.2462 17.4477 2.7096 16.89 2.33157C16.3324 1.95354 15.6742 1.75146 15.0005 1.75146C14.3268 1.75146 13.6685 1.95354 13.1109 2.33157C12.5532 2.7096 12.1218 3.2462 11.8723 3.87201C11.2531 3.60417 10.5677 3.52852 9.90489 3.65486C9.24213 3.78121 8.63261 4.10372 8.15532 4.5806C7.67804 5.05748 7.35501 5.66673 7.2281 6.32939C7.1012 6.99204 7.17627 7.67753 7.44359 8.29701C6.81688 8.54579 6.27933 8.97704 5.90058 9.5349C5.52183 10.0927 5.31934 10.7515 5.31934 11.4258C5.31934 12.1 5.52183 12.7588 5.90058 13.3166C6.27933 13.8745 6.81688 14.3057 7.44359 14.5545C7.17691 15.1736 7.10217 15.8585 7.22903 16.5205C7.35589 17.1826 7.67852 17.7913 8.15517 18.2679C8.63182 18.7446 9.24055 19.0672 9.90259 19.1941C10.5646 19.3209 11.2495 19.2462 11.8686 18.9795C12.1174 19.6062 12.5486 20.1438 13.1065 20.5225C13.6643 20.9013 14.3231 21.1038 14.9973 21.1038C15.6716 21.1038 16.3304 20.9013 16.8882 20.5225C17.4461 20.1438 17.8773 19.6062 18.1261 18.9795C18.7452 19.2462 19.4301 19.3209 20.0921 19.1941C20.7541 19.0672 21.3629 18.7446 21.8395 18.2679C22.3161 17.7913 22.6388 17.1826 22.7656 16.5205C22.8925 15.8585 22.8178 15.1736 22.5511 14.5545C23.1782 14.3063 23.7162 13.8752 24.0952 13.3172C24.4741 12.7593 24.6765 12.1002 24.6761 11.4258" stroke="#191919" stroke-width="1.25" stroke-linecap="round" stroke-linejoin="round"/>
<path d="M14.9615 15C14.5769 15 14.2147 14.9225 13.875 14.7675C13.5417 14.6125 13.2532 14.3941 13.0096 14.1123C12.7724 13.8305 12.6026 13.4993 12.5 13.1189L13.4615 12.7173C13.5897 13.0907 13.7853 13.3796 14.0481 13.5839C14.3109 13.7882 14.6154 13.8904 14.9615 13.8904C15.2436 13.8904 15.4872 13.8305 15.6923 13.7107C15.9038 13.5909 16.0673 13.4218 16.1827 13.2034C16.3045 12.985 16.3654 12.7208 16.3654 12.4108C16.3654 12.1079 16.3045 11.8472 16.1827 11.6288C16.0673 11.4104 15.9038 11.2448 15.6923 11.1321C15.4872 11.0194 15.2436 10.963 14.9615 10.963C14.8462 10.963 14.7276 10.9736 14.6058 10.9947C14.4904 11.0159 14.3878 11.044 14.2981 11.0793L14.0481 10.498L15.9327 8.0568H12.8846V7H17.2019V8.00396L15.3558 10.4346L15.3269 10.033C15.7564 10.0401 16.1346 10.1458 16.4615 10.3501C16.7885 10.5473 17.0417 10.8221 17.2212 11.1744C17.4071 11.5196 17.5 11.9212 17.5 12.3791C17.5 12.8723 17.391 13.3197 17.1731 13.7213C16.9551 14.1158 16.6538 14.4293 16.2692 14.6618C15.891 14.8873 15.4551 15 14.9615 15Z" fill="#191919"/>
</svg>
