<svg width="22" height="22" viewBox="0 0 22 22" fill="none" xmlns="http://www.w3.org/2000/svg">
<g opacity="0.5">
<path opacity="0.5" d="M1.2085 11C1.2085 6.46273 1.2085 4.1941 2.61804 2.78455C4.02759 1.375 6.29623 1.375 10.8335 1.375C15.3708 1.375 17.6394 1.375 19.0489 2.78455C20.4585 4.1941 20.4585 6.46273 20.4585 11C20.4585 15.5373 20.4585 17.8059 19.0489 19.2155C17.6394 20.625 15.3708 20.625 10.8335 20.625C6.29623 20.625 4.02759 20.625 2.61804 19.2155C1.2085 17.8059 1.2085 15.5373 1.2085 11Z" fill="#C2C3C6"/>
<path d="M12.5193 13.0141C12.7337 12.8469 12.9281 12.6525 13.317 12.2636L18.1648 7.41578C18.282 7.29857 18.2283 7.09671 18.0717 7.04238C17.4995 6.84385 16.7551 6.47112 16.0588 5.77481C15.3625 5.0785 14.9898 4.33412 14.7913 3.7619C14.7369 3.6053 14.5351 3.55166 14.4179 3.66887L9.57005 8.51668L9.57004 8.51669C9.18119 8.90555 8.98675 9.09998 8.81954 9.31436C8.62229 9.56725 8.45318 9.84088 8.3152 10.1304C8.19823 10.3758 8.11128 10.6367 7.93738 11.1584L7.71267 11.8325L7.35536 12.9045L7.02033 13.9096C6.93475 14.1663 7.00157 14.4493 7.19293 14.6407C7.38429 14.8321 7.66735 14.8989 7.92409 14.8133L8.92918 14.4783L10.0011 14.121L10.6752 13.8963L10.6753 13.8963C11.197 13.7224 11.4578 13.6354 11.7032 13.5184C11.9928 13.3805 12.2664 13.2113 12.5193 13.0141Z" fill="#C2C3C6"/>
<path d="M19.6826 5.89792C20.7173 4.86324 20.7173 3.18569 19.6826 2.15101C18.648 1.11633 16.9704 1.11633 15.9357 2.15101L15.7799 2.30686C15.6295 2.45726 15.5613 2.66733 15.5989 2.87667C15.6225 3.00837 15.6664 3.2009 15.7461 3.43064C15.9055 3.89009 16.2065 4.49322 16.7735 5.06019C17.3404 5.62716 17.9435 5.92818 18.403 6.08758C18.6327 6.16729 18.8253 6.2111 18.957 6.23474C19.1663 6.27231 19.3764 6.20417 19.5268 6.05378L19.6826 5.89792Z" fill="#C2C3C6"/>
</g>
</svg>
