<svg width="115" height="100" viewBox="0 0 115 100" fill="none" xmlns="http://www.w3.org/2000/svg">
<g filter="url(#filter0_di_1202_12007)">
<path d="M59.9441 11.5271C61.9174 10.6238 64.2302 11.1705 65.5244 12.8463L78.4564 29.5915L93.3947 44.3564C95.0058 45.9487 95.1621 48.495 93.7616 50.3341L81.1982 66.8332L70.9516 84.9291C69.8611 86.8549 67.5627 87.7815 65.462 87.1422L44.6611 80.812L23.1596 77.1421C20.9882 76.7715 19.4186 74.9305 19.4109 72.7451L19.3381 52.2097L16.4284 32.0528C16.1041 29.806 17.5046 27.6278 19.7163 26.9391L40.2248 20.5537L59.9441 11.5271Z" fill="url(#paint0_linear_1202_12007)"/>
</g>
<g filter="url(#filter1_di_1202_12007)">
<path d="M64.3308 11.5271C66.3042 10.6238 68.6169 11.1705 69.9111 12.8463L82.8432 29.5915L97.7815 44.3564C99.3925 45.9487 99.5488 48.495 98.1484 50.3341L85.585 66.8332L75.3383 84.9291C74.2478 86.8549 71.9494 87.7815 69.8488 87.1422L49.0478 80.812L27.5463 77.1421C25.3749 76.7715 23.8053 74.9305 23.7976 72.7451L23.7248 52.2097L20.8151 32.0528C20.4908 29.806 21.8913 27.6278 24.1031 26.9391L44.6115 20.5537L64.3308 11.5271Z" fill="url(#paint1_linear_1202_12007)"/>
</g>
<g filter="url(#filter2_di_1202_12007)">
<path d="M68.7214 11.5271C70.6948 10.6238 73.0076 11.1705 74.3017 12.8463L87.2338 29.5915L102.172 44.3564C103.783 45.9487 103.939 48.495 102.539 50.3341L89.9756 66.8332L79.7289 84.9291C78.6385 86.8549 76.34 87.7815 74.2394 87.1422L53.4385 80.812L31.9369 77.1421C29.7655 76.7715 28.196 74.9305 28.1882 72.7451L28.1155 52.2097L25.2058 32.0528C24.8814 29.806 26.282 27.6278 28.4937 26.9391L49.0021 20.5537L68.7214 11.5271Z" fill="url(#paint2_linear_1202_12007)"/>
</g>
<defs>
<filter id="filter0_di_1202_12007" x="7.16373" y="4.94867" width="96.7702" height="94.6867" filterUnits="userSpaceOnUse" color-interpolation-filters="sRGB">
<feFlood flood-opacity="0" result="BackgroundImageFix"/>
<feColorMatrix in="SourceAlpha" type="matrix" values="0 0 0 0 0 0 0 0 0 0 0 0 0 0 0 0 0 0 127 0" result="hardAlpha"/>
<feOffset dy="3.07303"/>
<feGaussianBlur stdDeviation="4.60954"/>
<feComposite in2="hardAlpha" operator="out"/>
<feColorMatrix type="matrix" values="0 0 0 0 0 0 0 0 0 0 0 0 0 0 0 0 0 0 1 0"/>
<feBlend mode="normal" in2="BackgroundImageFix" result="effect1_dropShadow_1202_12007"/>
<feBlend mode="normal" in="SourceGraphic" in2="effect1_dropShadow_1202_12007" result="shape"/>
<feColorMatrix in="SourceAlpha" type="matrix" values="0 0 0 0 0 0 0 0 0 0 0 0 0 0 0 0 0 0 127 0" result="hardAlpha"/>
<feOffset dy="4.60954"/>
<feGaussianBlur stdDeviation="13.0604"/>
<feComposite in2="hardAlpha" operator="arithmetic" k2="-1" k3="1"/>
<feColorMatrix type="matrix" values="0 0 0 0 0 0 0 0 0 0 0 0 0 0 0 0 0 0 0.45 0"/>
<feBlend mode="normal" in2="shape" result="effect2_innerShadow_1202_12007"/>
</filter>
<filter id="filter1_di_1202_12007" x="11.5505" y="4.94867" width="96.7702" height="94.6867" filterUnits="userSpaceOnUse" color-interpolation-filters="sRGB">
<feFlood flood-opacity="0" result="BackgroundImageFix"/>
<feColorMatrix in="SourceAlpha" type="matrix" values="0 0 0 0 0 0 0 0 0 0 0 0 0 0 0 0 0 0 127 0" result="hardAlpha"/>
<feOffset dy="3.07303"/>
<feGaussianBlur stdDeviation="4.60954"/>
<feComposite in2="hardAlpha" operator="out"/>
<feColorMatrix type="matrix" values="0 0 0 0 0 0 0 0 0 0 0 0 0 0 0 0 0 0 1 0"/>
<feBlend mode="normal" in2="BackgroundImageFix" result="effect1_dropShadow_1202_12007"/>
<feBlend mode="normal" in="SourceGraphic" in2="effect1_dropShadow_1202_12007" result="shape"/>
<feColorMatrix in="SourceAlpha" type="matrix" values="0 0 0 0 0 0 0 0 0 0 0 0 0 0 0 0 0 0 127 0" result="hardAlpha"/>
<feOffset dy="4.60954"/>
<feGaussianBlur stdDeviation="13.0604"/>
<feComposite in2="hardAlpha" operator="arithmetic" k2="-1" k3="1"/>
<feColorMatrix type="matrix" values="0 0 0 0 0 0 0 0 0 0 0 0 0 0 0 0 0 0 0.45 0"/>
<feBlend mode="normal" in2="shape" result="effect2_innerShadow_1202_12007"/>
</filter>
<filter id="filter2_di_1202_12007" x="15.9411" y="4.94867" width="96.7702" height="94.6867" filterUnits="userSpaceOnUse" color-interpolation-filters="sRGB">
<feFlood flood-opacity="0" result="BackgroundImageFix"/>
<feColorMatrix in="SourceAlpha" type="matrix" values="0 0 0 0 0 0 0 0 0 0 0 0 0 0 0 0 0 0 127 0" result="hardAlpha"/>
<feOffset dy="3.07303"/>
<feGaussianBlur stdDeviation="4.60954"/>
<feComposite in2="hardAlpha" operator="out"/>
<feColorMatrix type="matrix" values="0 0 0 0 0 0 0 0 0 0 0 0 0 0 0 0 0 0 1 0"/>
<feBlend mode="normal" in2="BackgroundImageFix" result="effect1_dropShadow_1202_12007"/>
<feBlend mode="normal" in="SourceGraphic" in2="effect1_dropShadow_1202_12007" result="shape"/>
<feColorMatrix in="SourceAlpha" type="matrix" values="0 0 0 0 0 0 0 0 0 0 0 0 0 0 0 0 0 0 127 0" result="hardAlpha"/>
<feOffset dy="4.60954"/>
<feGaussianBlur stdDeviation="13.0604"/>
<feComposite in2="hardAlpha" operator="arithmetic" k2="-1" k3="1"/>
<feColorMatrix type="matrix" values="0 0 0 0 0 0 0 0 0 0 0 0 0 0 0 0 0 0 0.45 0"/>
<feBlend mode="normal" in2="shape" result="effect2_innerShadow_1202_12007"/>
</filter>
<linearGradient id="paint0_linear_1202_12007" x1="63.3142" y1="9.98442" x2="44.281" y2="90.4987" gradientUnits="userSpaceOnUse">
<stop stop-color="#06FF06"/>
<stop offset="1" stop-color="#005C00"/>
</linearGradient>
<linearGradient id="paint1_linear_1202_12007" x1="67.7009" y1="9.98442" x2="48.6677" y2="90.4987" gradientUnits="userSpaceOnUse">
<stop stop-color="#06FF06"/>
<stop offset="1" stop-color="#005C00"/>
</linearGradient>
<linearGradient id="paint2_linear_1202_12007" x1="72.0916" y1="9.98442" x2="53.0583" y2="90.4987" gradientUnits="userSpaceOnUse">
<stop stop-color="#06FF06"/>
<stop offset="1" stop-color="#005C00"/>
</linearGradient>
</defs>
</svg>
