<svg width="35" height="35" viewBox="0 0 35 35" fill="none" xmlns="http://www.w3.org/2000/svg">
<rect width="35" height="35" rx="6.125" fill="white"/>
<path d="M4.50781 4.74805L4.65306 22.489C5.67911 22.3474 7.16694 22.0604 8.2043 21.7985C4.69856 16.245 5.40212 11.018 8.33255 8.14545C11.2671 5.26878 16.342 4.86945 21.085 8.54702C21.3495 8.00808 21.6542 7.29851 22.0027 6.57827C22.3016 5.96074 22.6405 5.3407 23.0366 4.78726L4.50781 4.74805ZM14.0626 6.87741C13.9032 6.87725 13.7456 6.88168 13.5893 6.89109L18.682 9.91257L19.4187 8.60346C17.5599 7.4069 15.7282 6.87889 14.0626 6.87741ZM11.4308 7.35254C10.5296 7.6963 9.72325 8.21551 9.04862 8.8769C7.96707 9.93707 7.2073 11.3784 6.94316 13.0878C9.42083 13.507 11.2665 15.2194 11.4549 17.5159C11.7108 20.6394 15.3209 23.1 18.0515 22.7983C21.6795 22.3971 23.0471 24.2041 23.6262 26.9512C24.2562 29.9407 27.0354 31.283 30.5441 30.5332C27.8007 29.6823 25.4512 28.2488 25.4771 24.9089C25.5029 21.5689 23.5707 19.6682 20.9774 19.5067C17.7203 19.3041 16.6994 17.1841 16.534 14.3388C16.4165 12.3172 14.2496 9.11249 11.4309 7.35243L11.4308 7.35254ZM6.84056 14.4619C6.84406 16.2342 7.35025 18.2274 8.51706 20.3408L9.7373 19.6162L6.84056 14.4619Z" fill="black"/>
</svg>
