<svg width="30" height="31" viewBox="0 0 30 31" fill="none" xmlns="http://www.w3.org/2000/svg">
<path d="M24.6773 11.4253C24.6779 10.7509 24.4757 10.092 24.0969 9.53407C23.7182 8.97613 23.1805 8.54495 22.5536 8.29652C22.8203 7.67743 22.895 6.99256 22.7681 6.33052C22.6413 5.66849 22.3186 5.05976 21.842 4.58311C21.3654 4.10646 20.7566 3.78383 20.0946 3.65697C19.4325 3.5301 18.7477 3.60485 18.1286 3.87152C17.8791 3.24571 17.4477 2.70911 16.89 2.33108C16.3324 1.95305 15.6742 1.75098 15.0005 1.75098C14.3268 1.75098 13.6685 1.95305 13.1109 2.33108C12.5532 2.70911 12.1218 3.24571 11.8723 3.87152C11.2531 3.60368 10.5677 3.52803 9.90489 3.65437C9.24213 3.78072 8.63261 4.10323 8.15532 4.58011C7.67804 5.05699 7.35501 5.66625 7.2281 6.3289C7.1012 6.99155 7.17627 7.67704 7.44359 8.29652C6.81688 8.5453 6.27933 8.97656 5.90058 9.53441C5.52183 10.0923 5.31934 10.751 5.31934 11.4253C5.31934 12.0996 5.52183 12.7583 5.90058 13.3161C6.27933 13.874 6.81688 14.3052 7.44359 14.554C7.17691 15.1731 7.10217 15.858 7.22903 16.52C7.35589 17.1821 7.67852 17.7908 8.15517 18.2674C8.63182 18.7441 9.24055 19.0667 9.90259 19.1936C10.5646 19.3204 11.2495 19.2457 11.8686 18.979C12.1174 19.6057 12.5486 20.1433 13.1065 20.522C13.6643 20.9008 14.3231 21.1033 14.9973 21.1033C15.6716 21.1033 16.3304 20.9008 16.8882 20.522C17.4461 20.1433 17.8773 19.6057 18.1261 18.979C18.7452 19.2457 19.43 19.3204 20.0921 19.1936C20.7541 19.0667 21.3629 18.7441 21.8395 18.2674C22.3161 17.7908 22.6388 17.1821 22.7656 16.52C22.8925 15.858 22.8178 15.1731 22.5511 14.554C23.1782 14.3058 23.7162 13.8747 24.0952 13.3167C24.4741 12.7588 24.6765 12.0998 24.6761 11.4253" fill="#FFEF5E"/>
<path d="M21.8398 4.58288C21.363 4.10637 20.7542 3.78386 20.0922 3.65706C19.4301 3.53026 18.7452 3.60501 18.1261 3.87163C17.8768 3.24542 17.4454 2.70842 16.8876 2.33009C16.3298 1.95176 15.6713 1.74951 14.9973 1.74951C14.3233 1.74951 13.6649 1.95176 13.1071 2.33009C12.5493 2.70842 12.1178 3.24542 11.8686 3.87163C11.2495 3.60495 10.5646 3.53021 9.90259 3.65707C9.24055 3.78394 8.63182 4.10657 8.15517 4.58321C7.67852 5.05986 7.35589 5.66859 7.22903 6.33063C7.10217 6.99266 7.17691 7.67754 7.44359 8.29663C6.81688 8.54541 6.27933 8.97666 5.90058 9.53451C5.52183 10.0924 5.31934 10.7511 5.31934 11.4254C5.31934 12.0997 5.52183 12.7584 5.90058 13.3162C6.27933 13.8741 6.81688 14.3053 7.44359 14.5541C7.17654 15.1731 7.10168 15.858 7.22873 16.52C7.35579 17.182 7.67888 17.7905 8.15609 18.2666L21.8398 4.58288Z" fill="#FFF9BF"/>
<path d="M24.6296 18.8418L28.4134 25.3943C28.5796 25.6818 28.4471 25.878 28.1196 25.818L24.0571 25.1305L22.6496 29.0005C22.5359 29.313 22.3034 29.3343 22.1346 29.0505L18.5059 22.913" fill="#FF808C"/>
<path d="M24.6296 18.8418L28.4134 25.3943C28.5796 25.6818 28.4471 25.878 28.1196 25.818L24.0571 25.1305L22.6496 29.0005C22.5359 29.313 22.3034 29.3343 22.1346 29.0505L18.5059 22.913" stroke="#191919" stroke-width="1.25" stroke-linecap="round" stroke-linejoin="round"/>
<path d="M5.3695 18.8418L1.587 25.3943C1.4195 25.6818 1.55325 25.878 1.88075 25.818L5.94325 25.1305L7.3495 29.0005C7.46325 29.3143 7.69575 29.3343 7.86575 29.0505L11.4945 22.9205" fill="#FF808C"/>
<path d="M5.3695 18.8418L1.587 25.3943C1.4195 25.6818 1.55325 25.878 1.88075 25.818L5.94325 25.1305L7.3495 29.0005C7.46325 29.3143 7.69575 29.3343 7.86575 29.0505L11.4945 22.9205" stroke="#191919" stroke-width="1.25" stroke-linecap="round" stroke-linejoin="round"/>
<path d="M24.6773 11.4253C24.6779 10.7509 24.4757 10.092 24.0969 9.53407C23.7182 8.97613 23.1805 8.54495 22.5536 8.29652C22.8203 7.67743 22.895 6.99256 22.7681 6.33052C22.6413 5.66849 22.3186 5.05976 21.842 4.58311C21.3654 4.10646 20.7566 3.78383 20.0946 3.65697C19.4325 3.5301 18.7477 3.60485 18.1286 3.87152C17.8791 3.24571 17.4477 2.70911 16.89 2.33108C16.3324 1.95305 15.6742 1.75098 15.0005 1.75098C14.3268 1.75098 13.6685 1.95305 13.1109 2.33108C12.5532 2.70911 12.1218 3.24571 11.8723 3.87152C11.2531 3.60368 10.5677 3.52803 9.90489 3.65437C9.24213 3.78072 8.63261 4.10323 8.15532 4.58011C7.67804 5.05699 7.35501 5.66625 7.2281 6.3289C7.1012 6.99155 7.17627 7.67704 7.44359 8.29652C6.81688 8.5453 6.27933 8.97656 5.90058 9.53441C5.52183 10.0923 5.31934 10.751 5.31934 11.4253C5.31934 12.0996 5.52183 12.7583 5.90058 13.3161C6.27933 13.874 6.81688 14.3052 7.44359 14.554C7.17691 15.1731 7.10217 15.858 7.22903 16.52C7.35589 17.1821 7.67852 17.7908 8.15517 18.2674C8.63182 18.7441 9.24055 19.0667 9.90259 19.1936C10.5646 19.3204 11.2495 19.2457 11.8686 18.979C12.1174 19.6057 12.5486 20.1433 13.1065 20.522C13.6643 20.9008 14.3231 21.1033 14.9973 21.1033C15.6716 21.1033 16.3304 20.9008 16.8882 20.522C17.4461 20.1433 17.8773 19.6057 18.1261 18.979C18.7452 19.2457 19.4301 19.3204 20.0921 19.1936C20.7541 19.0667 21.3629 18.7441 21.8395 18.2674C22.3161 17.7908 22.6388 17.1821 22.7656 16.52C22.8925 15.858 22.8178 15.1731 22.5511 14.554C23.1782 14.3058 23.7162 13.8747 24.0952 13.3167C24.4741 12.7588 24.6765 12.0998 24.6761 11.4253" stroke="#191919" stroke-width="1.25" stroke-linecap="round" stroke-linejoin="round"/>
<path d="M15.1524 15.3655V7.80668H13.4766V6.63477H16.5235V15.3655H15.1524Z" fill="#191919"/>
</svg>
