<svg width="24" height="25" viewBox="0 0 24 25" fill="none" xmlns="http://www.w3.org/2000/svg">
<g clip-path="url(#clip0_158_4257)">
<g opacity="0.5" filter="url(#filter0_d_158_4257)">
<path d="M12 22.5C17.5228 22.5 22 18.0228 22 12.5C22 6.97715 17.5228 2.5 12 2.5C6.47715 2.5 2 6.97715 2 12.5C2 18.0228 6.47715 22.5 12 22.5Z" fill="#A28AE8"/>
</g>
<g filter="url(#filter1_d_158_4257)">
<path fill-rule="evenodd" clip-rule="evenodd" d="M12 7.75C12.4142 7.75 12.75 8.08579 12.75 8.5V12.1893L15.0303 14.4697C15.3232 14.7626 15.3232 15.2374 15.0303 15.5303C14.7374 15.8232 14.2626 15.8232 13.9697 15.5303L11.4697 13.0303C11.329 12.8897 11.25 12.6989 11.25 12.5V8.5C11.25 8.08579 11.5858 7.75 12 7.75Z" fill="#A28AE8"/>
</g>
</g>
<defs>
<filter id="filter0_d_158_4257" x="-2" y="2.5" width="28" height="28" filterUnits="userSpaceOnUse" color-interpolation-filters="sRGB">
<feFlood flood-opacity="0" result="BackgroundImageFix"/>
<feColorMatrix in="SourceAlpha" type="matrix" values="0 0 0 0 0 0 0 0 0 0 0 0 0 0 0 0 0 0 127 0" result="hardAlpha"/>
<feOffset dy="4"/>
<feGaussianBlur stdDeviation="2"/>
<feComposite in2="hardAlpha" operator="out"/>
<feColorMatrix type="matrix" values="0 0 0 0 0 0 0 0 0 0 0 0 0 0 0 0 0 0 0.65 0"/>
<feBlend mode="normal" in2="BackgroundImageFix" result="effect1_dropShadow_158_4257"/>
<feBlend mode="normal" in="SourceGraphic" in2="effect1_dropShadow_158_4257" result="shape"/>
</filter>
<filter id="filter1_d_158_4257" x="7.25" y="7.75" width="12" height="16" filterUnits="userSpaceOnUse" color-interpolation-filters="sRGB">
<feFlood flood-opacity="0" result="BackgroundImageFix"/>
<feColorMatrix in="SourceAlpha" type="matrix" values="0 0 0 0 0 0 0 0 0 0 0 0 0 0 0 0 0 0 127 0" result="hardAlpha"/>
<feOffset dy="4"/>
<feGaussianBlur stdDeviation="2"/>
<feComposite in2="hardAlpha" operator="out"/>
<feColorMatrix type="matrix" values="0 0 0 0 0 0 0 0 0 0 0 0 0 0 0 0 0 0 0.65 0"/>
<feBlend mode="normal" in2="BackgroundImageFix" result="effect1_dropShadow_158_4257"/>
<feBlend mode="normal" in="SourceGraphic" in2="effect1_dropShadow_158_4257" result="shape"/>
</filter>
<clipPath id="clip0_158_4257">
<rect width="24" height="24" fill="white" transform="translate(0 0.5)"/>
</clipPath>
</defs>
</svg>
