<svg width="15" height="16" viewBox="0 0 15 16" fill="none" xmlns="http://www.w3.org/2000/svg">
<path fill-rule="evenodd" clip-rule="evenodd" d="M5.45729 4.10708L3.54345 6.69648C2.7405 7.78286 2.33903 8.32605 2.56025 8.75315C2.56391 8.76022 2.56768 8.76724 2.57156 8.77421C2.8059 9.19479 3.4993 9.19479 4.8861 9.19479C5.65674 9.19479 6.04206 9.19479 6.28376 9.42211L6.29628 9.43414L8.71625 6.57791L8.70373 6.56588C8.46714 6.33366 8.46714 5.96345 8.46714 5.22301V5.02945C8.46714 2.97656 8.46714 1.95011 7.89004 1.77326C7.31294 1.59641 6.69439 2.4333 5.45729 4.10708Z" fill="#A28AE8"/>
<path opacity="0.5" d="M6.53296 10.7772L6.53295 10.9707C6.53292 13.0236 6.53291 14.0501 7.11001 14.227C7.68711 14.4038 8.30567 13.5669 9.5428 11.8931L11.4566 9.30376C12.2596 8.21738 12.6611 7.67419 12.4399 7.24709C12.4362 7.24001 12.4324 7.23299 12.4286 7.22603C12.1942 6.80544 11.5008 6.80544 10.114 6.80544C9.34337 6.80544 8.95805 6.80544 8.71636 6.57812L6.29639 9.43435C6.53297 9.66658 6.53297 10.0368 6.53296 10.7772Z" fill="#A28AE8"/>
</svg>
