<svg width="20" height="21" viewBox="0 0 20 21" fill="none" xmlns="http://www.w3.org/2000/svg">
<path d="M13.9582 3.46667V2.16667C13.9582 1.825 13.6749 1.54167 13.3332 1.54167C12.9915 1.54167 12.7082 1.825 12.7082 2.16667V3.41667H7.29152V2.16667C7.29152 1.825 7.00819 1.54167 6.66652 1.54167C6.32486 1.54167 6.04152 1.825 6.04152 2.16667V3.46667C3.79153 3.675 2.69987 5.01667 2.5332 7.00833C2.51653 7.25 2.71653 7.45 2.94987 7.45H17.0499C17.2915 7.45 17.4915 7.24167 17.4665 7.00833C17.2999 5.01667 16.2082 3.675 13.9582 3.46667Z" fill="#5D34D6"/>
<path opacity="0.4" d="M16.6667 8.7C17.125 8.7 17.5 9.075 17.5 9.53333V14.6667C17.5 17.1667 16.25 18.8333 13.3333 18.8333H6.66667C3.75 18.8333 2.5 17.1667 2.5 14.6667V9.53333C2.5 9.075 2.875 8.7 3.33333 8.7H16.6667Z" fill="#5D34D6"/>
<path d="M7.08333 13C6.975 13 6.86666 12.975 6.76666 12.9333C6.66666 12.8917 6.57501 12.8333 6.49167 12.7583C6.41667 12.675 6.35832 12.5833 6.31666 12.4833C6.27499 12.3833 6.25 12.275 6.25 12.1667C6.25 12.0583 6.27499 11.95 6.31666 11.85C6.35832 11.75 6.41667 11.6583 6.49167 11.575C6.57501 11.5 6.66666 11.4416 6.76666 11.4C6.96666 11.3166 7.2 11.3166 7.4 11.4C7.5 11.4416 7.59166 11.5 7.67499 11.575C7.74999 11.6583 7.80834 11.75 7.85001 11.85C7.89168 11.95 7.91667 12.0583 7.91667 12.1667C7.91667 12.275 7.89168 12.3833 7.85001 12.4833C7.80834 12.5833 7.74999 12.675 7.67499 12.7583C7.59166 12.8333 7.5 12.8917 7.4 12.9333C7.3 12.975 7.19167 13 7.08333 13Z" fill="#5D34D6"/>
<path d="M10.0003 13C9.89199 13 9.78365 12.975 9.68365 12.9334C9.58365 12.8917 9.492 12.8333 9.40867 12.7583C9.25867 12.6 9.16699 12.3833 9.16699 12.1667C9.16699 11.95 9.25867 11.7334 9.40867 11.575C9.492 11.5 9.58365 11.4417 9.68365 11.4C9.88365 11.3083 10.117 11.3083 10.317 11.4C10.417 11.4417 10.5087 11.5 10.592 11.575C10.742 11.7334 10.8337 11.95 10.8337 12.1667C10.8337 12.3833 10.742 12.6 10.592 12.7583C10.5087 12.8333 10.417 12.8917 10.317 12.9334C10.217 12.975 10.1087 13 10.0003 13Z" fill="#5D34D6"/>
<path d="M7.08333 15.9167C6.975 15.9167 6.86666 15.8917 6.76666 15.85C6.66666 15.8083 6.57501 15.75 6.49167 15.675C6.34167 15.5167 6.25 15.3 6.25 15.0833C6.25 14.8667 6.34167 14.65 6.49167 14.4917C6.57501 14.4167 6.66666 14.3583 6.76666 14.3166C6.96666 14.2333 7.2 14.2333 7.4 14.3166C7.5 14.3583 7.59166 14.4167 7.67499 14.4917C7.82499 14.65 7.91667 14.8667 7.91667 15.0833C7.91667 15.3 7.82499 15.5167 7.67499 15.675C7.59166 15.75 7.5 15.8083 7.4 15.85C7.3 15.8917 7.19167 15.9167 7.08333 15.9167Z" fill="#5D34D6"/>
</svg>
