<svg width="25" height="24" viewBox="0 0 25 24" fill="none" xmlns="http://www.w3.org/2000/svg">
<path opacity="0.4" d="M12.7695 3.40002C15.7628 3.40002 18.1904 5.83557 18.1904 8.81995V11.3502C18.1905 11.6171 18.2487 11.9425 18.3281 12.236C18.4079 12.5306 18.5219 12.8418 18.6553 13.0768L18.6621 13.0885L19.6621 14.7477L19.6631 14.7506C19.9732 15.2597 20.0277 15.8588 19.8223 16.4039C19.6139 16.9568 19.1854 17.3741 18.6338 17.5553L18.6309 17.5563C16.744 18.1884 14.7574 18.4996 12.7695 18.4996C10.7817 18.4996 8.79656 18.1879 6.91113 17.5465H6.91016C6.29326 17.3381 5.85218 16.9174 5.6709 16.4117L5.66895 16.4078L5.60938 16.2086C5.49698 15.74 5.5791 15.234 5.86816 14.7487L6.87793 13.0787L6.88184 13.0719C7.01748 12.8393 7.13124 12.5281 7.21094 12.235C7.29052 11.9423 7.34958 11.6171 7.34961 11.3502V8.81995C7.34965 5.83571 9.77644 3.40025 12.7695 3.40002Z" fill="#292D32" stroke="#A4A6AA"/>
<mask id="path-2-inside-1_378_737" fill="white">
<path d="M14.9998 3.32C14.3098 3.05 13.5598 2.9 12.7698 2.9C11.9898 2.9 11.2398 3.04 10.5498 3.32C10.9798 2.51 11.8298 2 12.7698 2C13.7198 2 14.5598 2.51 14.9998 3.32Z"/>
</mask>
<path d="M14.9998 3.32C14.3098 3.05 13.5598 2.9 12.7698 2.9C11.9898 2.9 11.2398 3.04 10.5498 3.32C10.9798 2.51 11.8298 2 12.7698 2C13.7198 2 14.5598 2.51 14.9998 3.32Z" fill="#292D32"/>
<path d="M14.9998 3.32L14.6354 4.25124L17.1858 5.24922L15.8785 2.84267L14.9998 3.32ZM10.5498 3.32L9.66655 2.85111L8.37655 5.2811L10.9258 4.24661L10.5498 3.32ZM14.9998 3.32L15.3642 2.38876C14.5613 2.07456 13.6879 1.9 12.7698 1.9V2.9V3.9C13.4317 3.9 14.0583 4.02544 14.6354 4.25124L14.9998 3.32ZM12.7698 2.9V1.9C11.8697 1.9 10.9911 2.06171 10.1738 2.39339L10.5498 3.32L10.9258 4.24661C11.4885 4.01829 12.1099 3.9 12.7698 3.9V2.9ZM10.5498 3.32L11.4331 3.78889C11.6868 3.31096 12.1938 3 12.7698 3V2V1C11.4658 1 10.2728 1.70904 9.66655 2.85111L10.5498 3.32ZM12.7698 2V3C13.3518 3 13.8554 3.30814 14.1211 3.79733L14.9998 3.32L15.8785 2.84267C15.2643 1.71186 14.0878 1 12.7698 1V2Z" fill="#A4A6AA" mask="url(#path-2-inside-1_378_737)"/>
<path d="M10.9966 20.627V20.6279C11.5784 20.679 12.1731 20.71 12.77 20.71C13.3572 20.71 13.9422 20.679 14.5142 20.6279H14.5181C14.5604 20.6239 14.6071 20.6192 14.6567 20.6152C14.1956 21.1563 13.5121 21.4999 12.7505 21.5C12.0916 21.5 11.4423 21.2318 10.9897 20.7627L10.9722 20.7451L10.8804 20.6523C10.8685 20.6395 10.8578 20.6255 10.8462 20.6123C10.8962 20.6172 10.9463 20.6227 10.9966 20.627Z" fill="#292D32" stroke="#A4A6AA"/>
</svg>
