<svg width="25" height="24" viewBox="0 0 25 24" fill="none" xmlns="http://www.w3.org/2000/svg">
<path opacity="0.4" d="M12.5 2.5C14.8439 2.5 16.75 4.40614 16.75 6.75C16.74 9.05196 14.9419 10.9097 12.6523 10.9902H12.624C12.5448 10.9818 12.4635 10.9833 12.3867 10.9893C10.0377 10.9032 8.25 9.04362 8.25 6.75C8.25 4.40614 10.1561 2.5 12.5 2.5Z" fill="#292D32" stroke="#A4A6AA"/>
<path d="M12.5127 13.255C14.2739 13.255 16.0069 13.7017 17.3027 14.5656C18.3867 15.2882 18.9582 16.2129 19.0322 17.172L19.04 17.3644C19.0385 18.3308 18.5294 19.2688 17.5107 20.0265L17.3008 20.1749C15.9999 21.0482 14.2628 21.5001 12.5 21.5001C10.7371 21.5001 8.99913 21.0484 7.69824 20.1749L7.69727 20.174C6.53834 19.4013 5.95996 18.4017 5.95996 17.38C5.95996 16.3576 6.53905 15.3479 7.70801 14.5656L7.70703 14.5646C9.0135 13.7005 10.7524 13.255 12.5127 13.255Z" fill="#292D32" stroke="#A4A6AA"/>
</svg>
