<svg width="25" height="24" viewBox="0 0 25 24" fill="none" xmlns="http://www.w3.org/2000/svg">
<path opacity="0.4" d="M12.25 2.5C17.2206 2.5 21.25 6.52944 21.25 11.5C21.25 16.4706 17.2206 20.5 12.25 20.5C7.27944 20.5 3.25 16.4706 3.25 11.5C3.25 6.52944 7.27944 2.5 12.25 2.5Z" fill="#292D32" stroke="#A4A6AA"/>
<path d="M20.0591 19.2983C20.1221 19.2404 20.2248 19.2278 20.3081 19.2817L20.3433 19.3101L22.1968 21.1636C22.2656 21.2326 22.2747 21.3536 22.1968 21.4429C22.15 21.4814 22.0973 21.5004 22.0503 21.5005C21.9959 21.5005 21.945 21.4781 21.9136 21.4468L20.0532 19.5864C19.9825 19.5154 19.9736 19.3881 20.0591 19.2983Z" fill="#292D32" stroke="#A4A6AA"/>
</svg>
