<svg width="21" height="24" viewBox="0 0 21 24" fill="none" xmlns="http://www.w3.org/2000/svg">
<path fill-rule="evenodd" clip-rule="evenodd" d="M1.98573 0H19.0143C20.1064 0 21 0.896661 21 1.99316V22.0063C21 23.1028 20.1064 24 19.0143 24H1.98573C0.893605 24 0 23.1028 0 22.0063V1.99316C0 0.896661 0.893605 0 1.98573 0ZM8.80006 13.203C8.73337 14.2717 8.64322 15.3405 8.54318 16.4082C9.09133 16.4082 9.64052 16.4082 10.1887 16.4082C10.7363 16.4082 11.2855 16.4082 11.8347 16.4082C12.14 16.4082 12.2713 16.2293 12.2161 15.8751C12.1061 15.1637 11.9926 14.4522 11.9107 13.7386C11.8696 13.3819 11.7325 13.203 11.4798 13.203C11.0328 13.203 10.5852 13.203 10.1392 13.203C9.69315 13.203 9.24608 13.203 8.80006 13.203ZM8.78443 10.7986C9.23566 10.7986 9.68846 10.7986 10.1392 10.7986C10.5899 10.7986 11.0432 10.7986 11.4949 10.7986C11.7456 10.7986 11.8894 10.6202 11.9342 10.2624C12.0228 9.55093 12.127 8.84051 12.2364 8.12904C12.2911 7.77121 12.1598 7.59335 11.8461 7.59335C11.2938 7.59335 10.741 7.59335 10.1897 7.59335C9.63791 7.59335 9.0856 7.59335 8.5338 7.59335C8.62655 8.66212 8.71565 9.73089 8.78443 10.7986ZM16.1209 18.0101C16.3564 19.0652 15.7905 19.6135 14.7474 19.6135C13.0628 19.6135 11.3777 19.6135 9.69315 19.6135C8.00859 19.6135 6.3235 19.6135 4.63893 19.6135C5.05682 17.0768 6.23075 14.5652 6.20209 12.0013C6.17291 9.42851 5.03598 6.92478 4.63893 4.38651C6.3235 4.38651 8.00859 4.38651 9.69315 4.38651C11.3777 4.38651 13.0628 4.38651 14.7474 4.38651C15.8119 4.38651 16.3611 4.93319 16.1276 5.9915C15.9484 6.80498 15.6305 7.59387 15.3408 8.39584C15.0522 9.19572 14.7755 9.99246 14.5916 10.7986C14.4712 11.327 14.2591 11.6895 13.8824 11.8674C14.2487 12.0458 14.4128 12.4052 14.4993 12.9362C14.6379 13.7894 14.9214 14.6327 15.2366 15.4749C15.5545 16.323 15.9286 17.149 16.1209 18.0101Z" fill="#FFFFFF"/>
</svg>
