<svg width="19" height="20" viewBox="0 0 19 20" fill="none" xmlns="http://www.w3.org/2000/svg">
<path d="M6.09356 14.7402L12.5509 8.55727C12.943 8.18188 13.139 7.99418 13.2414 7.79049C13.4249 7.42566 13.4249 7.00067 13.2414 6.63584C13.139 6.43215 12.943 6.24445 12.5509 5.86905C12.1589 5.49366 11.9628 5.30596 11.7501 5.20787C11.3691 5.03217 10.9252 5.03217 10.5442 5.20787C10.3315 5.30596 10.1354 5.49366 9.74337 5.86905L3.33281 12.0072C2.3714 12.9277 1.8907 13.388 1.72285 13.9232C1.59238 14.3392 1.59238 14.7827 1.72285 15.1988C1.8907 15.734 2.3714 16.1942 3.33281 17.1148C4.29421 18.0353 4.77491 18.4956 5.33386 18.6563C5.76835 18.7812 6.23159 18.7812 6.66609 18.6563C7.22504 18.4956 7.70574 18.0353 8.66714 17.1148L15.1713 10.8871C16.0851 10.0121 16.542 9.57458 16.8165 9.11946C17.5612 7.88439 17.5612 6.36272 16.8165 5.12766C16.542 4.67253 16.0851 4.23504 15.1713 3.36005C14.2575 2.48506 13.8005 2.04757 13.3252 1.7848C12.0353 1.07173 10.4461 1.07173 9.15623 1.7848C8.6809 2.04757 8.22399 2.48506 7.31016 3.36005L2.06941 8.37806" stroke="#757575" stroke-width="1.4" stroke-linecap="round"/>
</svg>
