<svg width="26" height="26" viewBox="0 0 26 26" fill="none" xmlns="http://www.w3.org/2000/svg">
<path d="M20.188 16.9758L22.0475 11.3974C23.6719 6.52412 24.4841 4.08749 23.1979 2.80129C21.9117 1.51508 19.4751 2.32729 14.6018 3.9517L9.02337 5.81119C5.09019 7.12225 3.12359 7.77778 2.56475 8.73907C2.03311 9.65355 2.03311 10.783 2.56475 11.6975C3.12359 12.6588 5.09019 13.3143 9.02337 14.6254C9.51081 14.7879 10.0592 14.6718 10.4242 14.3102L16.3886 8.40104C16.7242 8.06859 17.2657 8.07111 17.5981 8.40667C17.9306 8.74222 17.9281 9.28373 17.5925 9.61618L11.7244 15.4299C11.3221 15.8285 11.1947 16.4386 11.3738 16.9758C12.6849 20.909 13.3404 22.8756 14.3017 23.4344C15.2162 23.9661 16.3456 23.9661 17.2601 23.4344C18.2214 22.8756 18.8769 20.909 20.188 16.9758Z" fill="#A28AE8"/>
</svg>
