<svg width="129" height="145" viewBox="0 0 129 145" fill="none" xmlns="http://www.w3.org/2000/svg">
<g opacity="0.1" clip-path="url(#clip0_1571_22882)">
<path fill-rule="evenodd" clip-rule="evenodd" d="M50.2133 134.772C59.8245 139.669 71.4998 135.875 94.8504 128.288C118.201 120.701 129.876 116.908 134.773 107.296C139.671 97.6853 135.877 86.01 128.29 62.6594C120.703 39.3087 116.909 27.6334 107.298 22.7363C97.6871 17.8392 86.0118 21.6327 62.6611 29.2198C39.3105 36.8069 27.6352 40.6004 22.7381 50.2116C17.841 59.8227 21.6345 71.498 29.2216 94.8486C36.8087 118.199 40.6022 129.875 50.2133 134.772ZM55.227 86.399C54.5604 84.3472 55.6832 82.1435 57.735 81.4768L88.3934 71.5153L77.1074 65.7648C75.1852 64.7854 74.4209 62.4331 75.4003 60.5109C76.3797 58.5887 78.732 57.8244 80.6542 58.8038L100.343 68.8357C101.266 69.306 101.964 70.1238 102.285 71.1091C102.605 72.0944 102.52 73.1665 102.05 74.0896L92.0181 93.7782C91.0387 95.7004 88.6864 96.4647 86.7642 95.4853C84.842 94.5059 84.0777 92.1536 85.0571 90.2314L90.8076 78.9454L60.1492 88.9069C58.0974 89.5736 55.8937 88.4507 55.227 86.399Z" fill="#6BFF6B"/>
</g>
<defs>
<clipPath id="clip0_1571_22882">
<rect width="125" height="125" fill="white" transform="translate(0 38.627) rotate(-18)"/>
</clipPath>
</defs>
</svg>
