<svg width="24" height="30" viewBox="0 0 24 30" fill="none" xmlns="http://www.w3.org/2000/svg">
<g filter="url(#filter0_d_1387_17721)">
<path fill-rule="evenodd" clip-rule="evenodd" d="M4 4.69531V18.6953C4 20.3522 5.34315 21.6953 7 21.6953H17C18.6569 21.6953 20 20.3522 20 18.6953V8.69531C20 7.03846 18.6569 5.69531 17 5.69531H5C4.44772 5.69531 4 5.2476 4 4.69531ZM7.25 11.6953C7.25 11.2811 7.58579 10.9453 8 10.9453H16C16.4142 10.9453 16.75 11.2811 16.75 11.6953C16.75 12.1095 16.4142 12.4453 16 12.4453H8C7.58579 12.4453 7.25 12.1095 7.25 11.6953ZM7.25 15.1953C7.25 14.7811 7.58579 14.4453 8 14.4453H13.5C13.9142 14.4453 14.25 14.7811 14.25 15.1953C14.25 15.6095 13.9142 15.9453 13.5 15.9453H8C7.58579 15.9453 7.25 15.6095 7.25 15.1953Z" fill="#6BFF6B"/>
</g>
<g opacity="0.5" filter="url(#filter1_d_1387_17721)">
<path d="M18 4.00038V5.86504C17.6872 5.75449 17.3506 5.69434 17 5.69434H5C4.44772 5.69434 4 5.24662 4 4.69434V4.62329C4 4.09027 4.39193 3.63837 4.91959 3.56299L15.7172 2.02048C16.922 1.84835 18 2.78328 18 4.00038Z" fill="#6BFF6B"/>
</g>
<defs>
<filter id="filter0_d_1387_17721" x="0" y="4.69531" width="24" height="25" filterUnits="userSpaceOnUse" color-interpolation-filters="sRGB">
<feFlood flood-opacity="0" result="BackgroundImageFix"/>
<feColorMatrix in="SourceAlpha" type="matrix" values="0 0 0 0 0 0 0 0 0 0 0 0 0 0 0 0 0 0 127 0" result="hardAlpha"/>
<feOffset dy="4"/>
<feGaussianBlur stdDeviation="2"/>
<feComposite in2="hardAlpha" operator="out"/>
<feColorMatrix type="matrix" values="0 0 0 0 0 0 0 0 0 0 0 0 0 0 0 0 0 0 0.65 0"/>
<feBlend mode="normal" in2="BackgroundImageFix" result="effect1_dropShadow_1387_17721"/>
<feBlend mode="normal" in="SourceGraphic" in2="effect1_dropShadow_1387_17721" result="shape"/>
</filter>
<filter id="filter1_d_1387_17721" x="0" y="2" width="22" height="11.8652" filterUnits="userSpaceOnUse" color-interpolation-filters="sRGB">
<feFlood flood-opacity="0" result="BackgroundImageFix"/>
<feColorMatrix in="SourceAlpha" type="matrix" values="0 0 0 0 0 0 0 0 0 0 0 0 0 0 0 0 0 0 127 0" result="hardAlpha"/>
<feOffset dy="4"/>
<feGaussianBlur stdDeviation="2"/>
<feComposite in2="hardAlpha" operator="out"/>
<feColorMatrix type="matrix" values="0 0 0 0 0 0 0 0 0 0 0 0 0 0 0 0 0 0 0.65 0"/>
<feBlend mode="normal" in2="BackgroundImageFix" result="effect1_dropShadow_1387_17721"/>
<feBlend mode="normal" in="SourceGraphic" in2="effect1_dropShadow_1387_17721" result="shape"/>
</filter>
</defs>
</svg>
