<svg width="127" height="99" viewBox="0 0 127 99" fill="none" xmlns="http://www.w3.org/2000/svg">
<g opacity="0.05">
<g filter="url(#filter0_d_1387_17725)">
<path fill-rule="evenodd" clip-rule="evenodd" d="M50.8867 29.6953L28.3542 99.0432C25.6876 107.25 30.179 116.065 38.3861 118.732L87.9203 134.826C96.1274 137.493 104.942 133.002 107.609 124.795L123.704 75.2604C126.37 67.0533 121.879 58.2384 113.672 55.5718L54.2307 36.2582C51.495 35.3693 49.9978 32.431 50.8867 29.6953ZM55.7191 69.6C56.3857 67.5482 58.5895 66.4254 60.6412 67.092L100.269 79.9677C102.32 80.6344 103.443 82.8381 102.777 84.8899C102.11 86.9417 99.9062 88.0645 97.8544 87.3979L58.2271 74.5222C56.1753 73.8555 55.0524 71.6518 55.7191 69.6ZM50.086 86.937C50.7526 84.8852 52.9564 83.7623 55.0081 84.429L82.2519 93.2811C84.3037 93.9477 85.4266 96.1514 84.7599 98.2032C84.0932 100.255 81.8895 101.378 79.8377 100.711L52.5939 91.8591C50.5422 91.1925 49.4193 88.9887 50.086 86.937Z" fill="#6BFF6B"/>
</g>
<g opacity="0.5" filter="url(#filter1_d_1387_17725)">
<path d="M121.351 48.7849L118.35 58.0214C116.978 56.9704 115.408 56.1307 113.671 55.5664L54.2302 36.2528C51.4945 35.3639 49.9973 32.4256 50.8862 29.6899L51.0006 29.338C51.8584 26.6977 54.5272 25.0901 57.2622 25.5659L113.23 35.3035C119.475 36.3901 123.31 42.7561 121.351 48.7849Z" fill="#6BFF6B"/>
</g>
</g>
<defs>
<filter id="filter0_d_1387_17725" x="23.5859" y="29.6953" width="104.887" height="113.9" filterUnits="userSpaceOnUse" color-interpolation-filters="sRGB">
<feFlood flood-opacity="0" result="BackgroundImageFix"/>
<feColorMatrix in="SourceAlpha" type="matrix" values="0 0 0 0 0 0 0 0 0 0 0 0 0 0 0 0 0 0 127 0" result="hardAlpha"/>
<feOffset dy="4"/>
<feGaussianBlur stdDeviation="2"/>
<feComposite in2="hardAlpha" operator="out"/>
<feColorMatrix type="matrix" values="0 0 0 0 0 0 0 0 0 0 0 0 0 0 0 0 0 0 0.65 0"/>
<feBlend mode="normal" in2="BackgroundImageFix" result="effect1_dropShadow_1387_17725"/>
<feBlend mode="normal" in="SourceGraphic" in2="effect1_dropShadow_1387_17725" result="shape"/>
</filter>
<filter id="filter1_d_1387_17725" x="46.6289" y="25.4824" width="79.2383" height="40.5391" filterUnits="userSpaceOnUse" color-interpolation-filters="sRGB">
<feFlood flood-opacity="0" result="BackgroundImageFix"/>
<feColorMatrix in="SourceAlpha" type="matrix" values="0 0 0 0 0 0 0 0 0 0 0 0 0 0 0 0 0 0 127 0" result="hardAlpha"/>
<feOffset dy="4"/>
<feGaussianBlur stdDeviation="2"/>
<feComposite in2="hardAlpha" operator="out"/>
<feColorMatrix type="matrix" values="0 0 0 0 0 0 0 0 0 0 0 0 0 0 0 0 0 0 0.65 0"/>
<feBlend mode="normal" in2="BackgroundImageFix" result="effect1_dropShadow_1387_17725"/>
<feBlend mode="normal" in="SourceGraphic" in2="effect1_dropShadow_1387_17725" result="shape"/>
</filter>
</defs>
</svg>
