<svg width="84" height="84" viewBox="0 0 84 84" fill="none" xmlns="http://www.w3.org/2000/svg">
<rect x="0.35" y="0.35" width="83.3" height="83.3" rx="41.65" fill="#181819"/>
<rect x="0.35" y="0.35" width="83.3" height="83.3" rx="41.65" stroke="#1D1C1F" stroke-width="0.7"/>
<path d="M51.067 25.2199C53.6494 23.9411 54.9407 23.3017 55.8132 23.8823C56.6857 24.4628 56.5616 25.8788 56.3136 28.7108L56.2494 29.4435C56.1789 30.2482 56.1436 30.6506 56.2695 31.0153C56.3954 31.3801 56.6682 31.6659 57.2138 32.2375L57.7105 32.7579C59.6304 34.7693 60.5903 35.7751 60.2739 36.8056C59.9575 37.8361 58.5743 38.2089 55.8078 38.9545L55.092 39.1474C54.3059 39.3593 53.9128 39.4652 53.5994 39.7113C53.2859 39.9573 53.0876 40.3157 52.6909 41.0323L52.3298 41.6848C50.9339 44.2067 50.236 45.4677 49.1679 45.524C48.0998 45.5804 47.369 44.3948 45.9073 42.0236L45.5291 41.4102C45.1138 40.7364 44.9061 40.3994 44.5865 40.1868C44.2668 39.9741 43.8715 39.9098 43.0808 39.7811L42.3609 39.6639C39.5783 39.2111 38.187 38.9847 37.8433 37.989C37.4996 36.9933 38.4312 35.8878 40.2943 33.6767L40.7763 33.1047C41.3057 32.4764 41.5704 32.1622 41.6863 31.7847C41.8022 31.4072 41.7562 31.0091 41.6642 30.213L41.5804 29.4881C41.2565 26.6863 41.0946 25.2854 41.9503 24.6137C42.8059 23.942 44.1125 24.4443 46.7257 25.4489L47.4017 25.7089C48.1443 25.9944 48.5156 26.1371 48.9069 26.1165C49.2981 26.0958 49.665 25.9141 50.3989 25.5507L51.067 25.2199Z" fill="#A28AE8"/>
<g opacity="0.5">
<path d="M36.5815 40.7529C30.9824 44.3268 25.9969 50.7929 23.833 56.7245C23.1309 58.649 24.7494 60.3335 26.8137 60.3335H28.7082C28.7083 59.6903 28.8589 58.8913 29.0817 58.0524C29.3109 57.1891 29.6411 56.1945 30.0526 55.1286C30.8756 52.9975 32.0459 50.5249 33.4496 48.1686C34.8482 45.8207 36.5112 43.5328 38.3354 41.8142C38.3805 41.7717 38.4258 41.7294 38.4714 41.6874C38.4285 41.6744 38.3862 41.6612 38.3445 41.6478C37.8233 41.4801 37.172 41.2132 36.5815 40.7529Z" fill="#A28AE8"/>
<path d="M42.0369 42.3974C41.4526 42.7548 40.8457 43.2274 40.2212 43.8158C38.6501 45.2959 37.138 47.3502 35.8121 49.5759C34.4913 51.7932 33.3878 54.1257 32.618 56.1193C32.2332 57.1158 31.9373 58.0134 31.7396 58.7582C31.5356 59.5264 31.4583 60.0508 31.4582 60.3335H36.6521C36.6523 58.2728 37.366 54.4564 38.6575 50.6319C39.6052 47.8255 40.9177 44.8508 42.6089 42.4905L42.0369 42.3974Z" fill="#A28AE8"/>
<path d="M44.38 44.7735C43.1411 46.687 42.0864 49.0732 41.2629 51.5118C40.0202 55.1918 39.4023 58.69 39.4021 60.3335H41.7649C43.8292 60.3335 45.4911 58.6718 45.6285 56.6298C45.8647 53.1205 46.4065 49.9576 47.0251 47.7084C46.4127 47.3487 45.9393 46.876 45.5911 46.4672C45.1896 45.9958 44.7857 45.4072 44.38 44.7735Z" fill="#A28AE8"/>
</g>
</svg>
