<svg width="96" height="96" viewBox="0 0 96 96" fill="none" xmlns="http://www.w3.org/2000/svg">
<circle cx="48" cy="64" r="12" stroke="#96FF96" stroke-width="3.03158"/>
<path d="M48 77.0409L38.9485 85.7186C37.6522 86.9614 37.0041 87.5827 36.4552 87.7978C35.2044 88.2878 33.817 87.8684 33.1591 86.8016C32.8703 86.3334 32.7804 85.489 32.6004 83.8C32.4988 82.8465 32.448 82.3697 32.2938 81.9703C31.9486 81.0763 31.2232 80.3809 30.2907 80.0499C29.8741 79.9021 29.3768 79.8534 28.3821 79.7559C26.6205 79.5834 25.7397 79.4972 25.2513 79.2204C24.1385 78.5896 23.7011 77.2594 24.2122 76.0603C24.4365 75.5341 25.0847 74.9127 26.3809 73.67L32.2938 68.0012L36.4552 63.8398" stroke="#96FF96" stroke-width="3.03158"/>
<path d="M48 77.0388L57.0515 85.7165C58.3478 86.9593 58.9959 87.5807 59.5448 87.7957C60.7956 88.2857 62.183 87.8664 62.8409 86.7995C63.1297 86.3313 63.2196 85.4869 63.3996 83.798C63.5012 82.8444 63.552 82.3676 63.7062 81.9683C64.0514 81.0742 64.7768 80.3788 65.7093 80.0478C66.1259 79.9 66.6232 79.8513 67.6179 79.7539C69.3795 79.5814 70.2603 79.4951 70.7487 79.2183C71.8615 78.5875 72.2989 77.2574 71.7878 76.0582C71.5635 75.532 70.9153 74.9106 69.6191 73.6679L63.7062 67.9992L60 64.293" stroke="#96FF96" stroke-width="3.03158"/>
<path d="M69.2786 71.9829C77.1684 71.8992 81.5658 71.4047 84.4853 68.4853C88 64.9706 88 59.3137 88 48V32C88 20.6863 88 15.0294 84.4853 11.5147C80.9706 8 75.3137 8 64 8L32 8C20.6863 8 15.0294 8 11.5147 11.5147C8 15.0294 8 20.6863 8 32L8 48C8 59.3137 8 64.9706 11.5147 68.4853C14.5883 71.5588 19.2999 71.9446 28 71.993" stroke="#96FF96" stroke-width="3.03158"/>
<path d="M36 24L60 24" stroke="#96FF96" stroke-width="3.03158" stroke-linecap="round"/>
<path d="M28 38H68" stroke="#96FF96" stroke-width="3.03158" stroke-linecap="round"/>
</svg>
