<svg width="24" height="24" viewBox="0 0 24 24" fill="none" xmlns="http://www.w3.org/2000/svg">
<path fill-rule="evenodd" clip-rule="evenodd" d="M14.25 4.47856L14.25 7.53622C14.2498 7.64745 14.2496 7.80601 14.2709 7.94213C14.2969 8.10854 14.3824 8.42981 14.7151 8.62514C15.0355 8.81325 15.3488 8.74339 15.4978 8.69709C15.6276 8.65672 15.77 8.5889 15.8762 8.53833L17 8.00448L18.1238 8.53832C18.23 8.58889 18.3724 8.65672 18.5022 8.69709C18.6512 8.74339 18.9645 8.81325 19.2849 8.62514C19.6176 8.42981 19.7031 8.10854 19.7291 7.94213C19.7504 7.80602 19.7502 7.64747 19.75 7.53625L19.75 3.03033C19.8628 3.02502 19.9736 3.02054 20.0818 3.01677C21.1536 2.97944 21.9998 3.85977 21.9998 4.93222V16.1426C21.9998 17.2536 21.0938 18.1525 19.985 18.2218C19.0155 18.2825 17.8765 18.401 16.9998 18.6324C15.9184 18.9178 15.0106 19.6999 13.6274 20.0683C13.0013 20.235 12.3029 20.3248 12 20.3916V5.17289C12.3208 5.09433 13.3822 4.97044 13.6737 4.80178C13.8579 4.69512 14.0512 4.58634 14.25 4.47856ZM19.7276 12.8171C19.8281 13.219 19.5837 13.6262 19.1819 13.7266L15.1819 14.7266C14.7801 14.8271 14.3729 14.5828 14.2724 14.1809C14.1719 13.7791 14.4163 13.3719 14.8181 13.2714L18.8181 12.2714C19.2199 12.171 19.6271 12.4153 19.7276 12.8171Z" fill="#C2C3C6"/>
<path d="M18.25 3.15003C17.63 3.22334 17.0204 3.33061 16.4998 3.48647C16.2583 3.55877 16.0062 3.65043 15.75 3.75542V3.94904V6.93761L16.4993 6.58168L16.5081 6.57724C16.5571 6.55219 16.7636 6.44659 17 6.44659C17.0475 6.44659 17.0939 6.45086 17.138 6.45789C17.3131 6.48581 17.4527 6.55723 17.4919 6.57724L17.5007 6.58168L18.25 6.93761V3.64567V3.15003Z" fill="#C2C3C6"/>
<path opacity="0.5" d="M12 5.21297C11.6658 5.14949 10.9426 5.05167 10.2823 4.87446C8.9381 4.51377 8.04921 3.76331 7 3.48645C6.11349 3.25252 4.95877 3.1339 3.9824 3.07389C2.8863 3.00653 2 3.89864 2 4.99681V16.1426C2 17.2536 2.90605 18.1525 4.01486 18.2218C4.98428 18.2825 6.12329 18.401 7 18.6324C7.48596 18.7606 8.21615 19.0635 8.87295 19.3583C9.87752 19.809 10.9247 20.1546 12 20.3916V5.21297Z" fill="#C2C3C6"/>
<path d="M4.27257 12.8183C4.37303 12.4164 4.78023 12.1721 5.18208 12.2726L9.18208 13.2726C9.58393 13.373 9.82825 13.7802 9.72778 14.1821C9.62732 14.5839 9.22012 14.8282 8.81828 14.7278L4.81828 13.7278C4.41643 13.6273 4.17211 13.2201 4.27257 12.8183Z" fill="#C2C3C6"/>
<path d="M5.18208 8.27257C4.78023 8.17211 4.37303 8.41643 4.27257 8.81828C4.17211 9.22012 4.41643 9.62732 4.81828 9.72778L8.81828 10.7278C9.22012 10.8282 9.62732 10.5839 9.72778 10.1821C9.82825 9.78023 9.58393 9.37303 9.18208 9.27257L5.18208 8.27257Z" fill="#C2C3C6"/>
</svg>
