<svg width="28" height="29" viewBox="0 0 28 29" fill="none" xmlns="http://www.w3.org/2000/svg">
<g filter="url(#filter0_d_1387_17731)">
<path d="M16.2172 3.49965C14.7962 2.83345 13.2037 2.83345 11.7827 3.49965L5.0916 6.63659C4.0156 7.14105 3.73507 8.56352 4.25 9.54666L4.25 14.5C4.25 14.9142 4.58579 15.25 5 15.25C5.41421 15.25 5.75 14.9142 5.75 14.5V10.672L11.7828 13.5003C13.2038 14.1665 14.7963 14.1665 16.2173 13.5003L22.9084 10.3634C24.3639 9.68105 24.3639 7.31899 22.9084 6.63664L16.2172 3.49965Z" fill="#6BFF6B"/>
</g>
<g opacity="0.5" filter="url(#filter1_d_1387_17731)">
<path d="M7 11.2578L11.7828 13.5001C13.2038 14.1663 14.7963 14.1663 16.2173 13.5001L21 11.2579V16.625C21 17.633 20.4965 18.5768 19.6147 19.0651C18.1463 19.8783 15.796 20.9996 14 20.9996C12.204 20.9996 9.8537 19.8783 8.38533 19.0651C7.5035 18.5768 7 17.633 7 16.625V11.2578Z" fill="#6BFF6B"/>
</g>
<defs>
<filter id="filter0_d_1387_17731" x="0" y="3" width="28" height="20.25" filterUnits="userSpaceOnUse" color-interpolation-filters="sRGB">
<feFlood flood-opacity="0" result="BackgroundImageFix"/>
<feColorMatrix in="SourceAlpha" type="matrix" values="0 0 0 0 0 0 0 0 0 0 0 0 0 0 0 0 0 0 127 0" result="hardAlpha"/>
<feOffset dy="4"/>
<feGaussianBlur stdDeviation="2"/>
<feComposite in2="hardAlpha" operator="out"/>
<feColorMatrix type="matrix" values="0 0 0 0 0 0 0 0 0 0 0 0 0 0 0 0 0 0 0.65 0"/>
<feBlend mode="normal" in2="BackgroundImageFix" result="effect1_dropShadow_1387_17731"/>
<feBlend mode="normal" in="SourceGraphic" in2="effect1_dropShadow_1387_17731" result="shape"/>
</filter>
<filter id="filter1_d_1387_17731" x="3" y="11.2578" width="22" height="17.7422" filterUnits="userSpaceOnUse" color-interpolation-filters="sRGB">
<feFlood flood-opacity="0" result="BackgroundImageFix"/>
<feColorMatrix in="SourceAlpha" type="matrix" values="0 0 0 0 0 0 0 0 0 0 0 0 0 0 0 0 0 0 127 0" result="hardAlpha"/>
<feOffset dy="4"/>
<feGaussianBlur stdDeviation="2"/>
<feComposite in2="hardAlpha" operator="out"/>
<feColorMatrix type="matrix" values="0 0 0 0 0 0 0 0 0 0 0 0 0 0 0 0 0 0 0.65 0"/>
<feBlend mode="normal" in2="BackgroundImageFix" result="effect1_dropShadow_1387_17731"/>
<feBlend mode="normal" in="SourceGraphic" in2="effect1_dropShadow_1387_17731" result="shape"/>
</filter>
</defs>
</svg>
