<svg width="28" height="30" viewBox="0 0 28 30" fill="none" xmlns="http://www.w3.org/2000/svg">
<g opacity="0.5" filter="url(#filter0_d_1387_17739)">
<path d="M11.5924 3.20031C11.3489 3.40782 11.2271 3.51158 11.0971 3.59874C10.799 3.79854 10.4642 3.93721 10.1121 4.00672C9.95851 4.03705 9.79903 4.04977 9.48008 4.07522L9.48007 4.07523C8.67869 4.13918 8.278 4.17115 7.94371 4.28923C7.17051 4.56233 6.56233 5.17051 6.28923 5.94371C6.17115 6.278 6.13918 6.67869 6.07523 7.48007L6.07522 7.48008C6.04977 7.79903 6.03705 7.95851 6.00672 8.1121C5.93721 8.46417 5.79854 8.79896 5.59874 9.09706C5.51158 9.2271 5.40781 9.34887 5.20028 9.59239L5.20027 9.5924C4.67883 10.2043 4.4181 10.5102 4.26522 10.8301C3.91159 11.57 3.91159 12.43 4.26522 13.1699C4.41811 13.4898 4.67883 13.7957 5.20027 14.4076L5.20031 14.4076C5.4078 14.6511 5.51159 14.7729 5.59874 14.9029C5.79854 15.201 5.93721 15.5358 6.00672 15.8879C6.03705 16.0415 6.04977 16.201 6.07522 16.5199L6.07523 16.5199C6.13918 17.3213 6.17115 17.722 6.28923 18.0563C6.56233 18.8295 7.17051 19.4377 7.94371 19.7108C8.27799 19.8288 8.67867 19.8608 9.48 19.9248L9.48008 19.9248C9.79903 19.9502 9.95851 19.963 10.1121 19.9933C10.4642 20.0628 10.799 20.2015 11.0971 20.4013C11.2271 20.4884 11.3489 20.5922 11.5924 20.7997C12.2043 21.3212 12.5102 21.5819 12.8301 21.7348C13.57 22.0884 14.43 22.0884 15.1699 21.7348C15.4898 21.5819 15.7957 21.3212 16.4076 20.7997C16.6511 20.5922 16.7729 20.4884 16.9029 20.4013C17.201 20.2015 17.5358 20.0628 17.8879 19.9933C18.0415 19.963 18.201 19.9502 18.5199 19.9248L18.52 19.9248C19.3213 19.8608 19.722 19.8288 20.0563 19.7108C20.8295 19.4377 21.4377 18.8295 21.7108 18.0563C21.8288 17.722 21.8608 17.3213 21.9248 16.52L21.9248 16.5199C21.9502 16.201 21.963 16.0415 21.9933 15.8879C22.0628 15.5358 22.2015 15.201 22.4013 14.9029C22.4884 14.7729 22.5922 14.6511 22.7997 14.4076C23.3212 13.7957 23.5819 13.4898 23.7348 13.1699C24.0884 12.43 24.0884 11.57 23.7348 10.8301C23.5819 10.5102 23.3212 10.2043 22.7997 9.5924C22.5922 9.34887 22.4884 9.22711 22.4013 9.09706C22.2015 8.79896 22.0628 8.46417 21.9933 8.1121C21.963 7.95851 21.9502 7.79903 21.9248 7.48008L21.9248 7.48C21.8608 6.67867 21.8288 6.27799 21.7108 5.94371C21.4377 5.17051 20.8295 4.56233 20.0563 4.28923C19.722 4.17115 19.3213 4.13918 18.5199 4.07523L18.5199 4.07522C18.201 4.04977 18.0415 4.03705 17.8879 4.00672C17.5358 3.93721 17.201 3.79854 16.9029 3.59874C16.7729 3.51158 16.6511 3.40781 16.4076 3.20027C15.7957 2.67883 15.4898 2.41811 15.1699 2.26522C14.43 1.91159 13.57 1.91159 12.8301 2.26522C12.5102 2.4181 12.2043 2.67883 11.5924 3.20027L11.5924 3.20031Z" fill="#6BFF6B"/>
</g>
<g filter="url(#filter1_d_1387_17739)">
<path d="M17.8299 8.17001C18.1477 8.48785 18.1477 9.00315 17.8299 9.32099L11.319 15.8319C11.0012 16.1497 10.4859 16.1497 10.1681 15.8319C9.85023 15.514 9.85023 14.9987 10.1681 14.6809L16.6789 8.17001C16.9968 7.85218 17.5121 7.85218 17.8299 8.17001Z" fill="#6BFF6B"/>
<path d="M17.797 14.7138C17.797 15.3131 17.3112 15.799 16.7119 15.799C16.1125 15.799 15.6267 15.3131 15.6267 14.7138C15.6267 14.1145 16.1125 13.6287 16.7119 13.6287C17.3112 13.6287 17.797 14.1145 17.797 14.7138Z" fill="#6BFF6B"/>
<path d="M11.2861 10.3732C11.8854 10.3732 12.3713 9.88738 12.3713 9.28807C12.3713 8.68876 11.8854 8.20293 11.2861 8.20293C10.6868 8.20293 10.201 8.68876 10.201 9.28807C10.201 9.88738 10.6868 10.3732 11.2861 10.3732Z" fill="#6BFF6B"/>
</g>
<defs>
<filter id="filter0_d_1387_17739" x="0" y="2" width="28" height="28" filterUnits="userSpaceOnUse" color-interpolation-filters="sRGB">
<feFlood flood-opacity="0" result="BackgroundImageFix"/>
<feColorMatrix in="SourceAlpha" type="matrix" values="0 0 0 0 0 0 0 0 0 0 0 0 0 0 0 0 0 0 127 0" result="hardAlpha"/>
<feOffset dy="4"/>
<feGaussianBlur stdDeviation="2"/>
<feComposite in2="hardAlpha" operator="out"/>
<feColorMatrix type="matrix" values="0 0 0 0 0 0 0 0 0 0 0 0 0 0 0 0 0 0 0.65 0"/>
<feBlend mode="normal" in2="BackgroundImageFix" result="effect1_dropShadow_1387_17739"/>
<feBlend mode="normal" in="SourceGraphic" in2="effect1_dropShadow_1387_17739" result="shape"/>
</filter>
<filter id="filter1_d_1387_17739" x="5.92969" y="7.93164" width="16.1367" height="16.1387" filterUnits="userSpaceOnUse" color-interpolation-filters="sRGB">
<feFlood flood-opacity="0" result="BackgroundImageFix"/>
<feColorMatrix in="SourceAlpha" type="matrix" values="0 0 0 0 0 0 0 0 0 0 0 0 0 0 0 0 0 0 127 0" result="hardAlpha"/>
<feOffset dy="4"/>
<feGaussianBlur stdDeviation="2"/>
<feComposite in2="hardAlpha" operator="out"/>
<feColorMatrix type="matrix" values="0 0 0 0 0 0 0 0 0 0 0 0 0 0 0 0 0 0 0.65 0"/>
<feBlend mode="normal" in2="BackgroundImageFix" result="effect1_dropShadow_1387_17739"/>
<feBlend mode="normal" in="SourceGraphic" in2="effect1_dropShadow_1387_17739" result="shape"/>
</filter>
</defs>
</svg>
