<svg width="127" height="99" viewBox="0 0 127 99" fill="none" xmlns="http://www.w3.org/2000/svg">
<g opacity="0.05">
<g opacity="0.5" filter="url(#filter0_d_1387_17743)">
<path d="M80.9927 31.2902C79.4526 31.9262 78.6824 32.2442 77.898 32.4667C76.0998 32.9766 74.2183 33.1247 72.3625 32.9023C71.5529 32.8053 70.7424 32.6117 69.1215 32.2244L69.1215 32.2244C65.049 31.2514 63.0128 30.7649 61.1668 30.8118C56.8973 30.9201 52.9059 32.9538 50.3087 36.3443C49.1857 37.8101 48.3825 39.7435 46.7759 43.6101L46.7759 43.6101C46.1365 45.1491 45.8167 45.9186 45.4193 46.6305C44.5084 48.2626 43.2827 49.6978 41.8132 50.8528C41.1721 51.3567 40.4622 51.7928 39.0422 52.6651L39.0422 52.6652C35.4745 54.8568 33.6905 55.9527 32.4184 57.2911C29.476 60.3867 28.0917 64.6471 28.6526 68.881C28.8951 70.7116 29.6942 72.6467 31.2923 76.5168L31.2924 76.5171C31.9283 78.0571 32.2464 78.8274 32.4688 79.6118C32.9787 81.41 33.1268 83.2915 32.9045 85.1473C32.8075 85.9569 32.6139 86.7674 32.2266 88.3882L32.2266 88.3883C31.2536 92.4608 30.767 94.497 30.8139 96.343C30.9223 100.612 32.956 104.604 36.3464 107.201C37.8123 108.324 39.7456 109.127 43.6122 110.734L43.6123 110.734C45.1512 111.373 45.9207 111.693 46.6327 112.09C48.2648 113.001 49.6999 114.227 50.855 115.697C51.3588 116.338 51.795 117.048 52.6673 118.468C54.859 122.035 55.9548 123.819 57.2932 125.091C60.3888 128.034 64.6492 129.418 68.8832 128.857C70.7137 128.615 72.6488 127.816 76.5189 126.218C78.0593 125.581 78.8295 125.263 79.6139 125.041C81.4121 124.531 83.2936 124.383 85.1495 124.605C85.9591 124.702 86.7695 124.896 88.3904 125.283L88.3905 125.283C92.4629 126.256 94.4992 126.743 96.3451 126.696C100.615 126.588 104.606 124.554 107.203 121.163C108.326 119.698 109.129 117.764 110.736 113.898L110.736 113.898C111.375 112.359 111.695 111.589 112.093 110.877C113.004 109.245 114.229 107.81 115.699 106.655C116.34 106.151 117.05 105.715 118.47 104.842C122.038 102.651 123.821 101.555 125.094 100.217C128.036 97.121 129.42 92.8605 128.859 88.6266C128.617 86.7961 127.818 84.861 126.22 80.9908C125.584 79.4505 125.266 78.6803 125.043 77.8959C124.533 76.0977 124.385 74.2162 124.607 72.3603C124.704 71.5507 124.898 70.7403 125.285 69.1194L125.285 69.1193C126.258 65.0468 126.745 63.0106 126.698 61.1647C126.59 56.8952 124.556 52.9037 121.166 50.3065C119.7 49.1836 117.766 48.3803 113.9 46.7738L113.9 46.7737C112.361 46.1343 111.591 45.8146 110.879 45.4172C109.247 44.5063 107.812 43.2805 106.657 41.811C106.153 41.17 105.717 40.46 104.845 39.04C102.653 35.4723 101.557 33.6884 100.219 32.4163C97.1231 29.4739 92.8627 28.0896 88.6288 28.6505C86.7982 28.893 84.8631 29.692 80.993 31.2901L80.9927 31.2902Z" fill="#6BFF6B"/>
</g>
<g filter="url(#filter1_d_1387_17743)">
<path d="M103.902 65.9506C104.965 68.0365 104.135 70.589 102.049 71.6518L59.3192 93.4239C57.2333 94.4867 54.6808 93.6574 53.618 91.5715C52.5552 89.4856 53.3845 86.9331 55.4704 85.8702L98.2006 64.0981C100.286 63.0353 102.839 63.8647 103.902 65.9506Z" fill="#6BFF6B"/>
<path d="M93.2068 98.3118C92.2422 101.28 89.0537 102.905 86.0851 101.94C83.1165 100.976 81.4919 97.7874 82.4564 94.8188C83.421 91.8501 86.6095 90.2255 89.5781 91.1901C92.5467 92.1546 94.1714 95.3431 93.2068 98.3118Z" fill="#6BFF6B"/>
<path d="M67.9417 66.332C70.9103 67.2966 74.0988 65.6719 75.0634 62.7033C76.0279 59.7347 74.4033 56.5462 71.4347 55.5816C68.4661 54.617 65.2776 56.2417 64.313 59.2103C63.3484 62.1789 64.9731 65.3674 67.9417 66.332Z" fill="#6BFF6B"/>
</g>
</g>
<defs>
<filter id="filter0_d_1387_17743" x="24.5312" y="28.5273" width="108.449" height="108.453" filterUnits="userSpaceOnUse" color-interpolation-filters="sRGB">
<feFlood flood-opacity="0" result="BackgroundImageFix"/>
<feColorMatrix in="SourceAlpha" type="matrix" values="0 0 0 0 0 0 0 0 0 0 0 0 0 0 0 0 0 0 127 0" result="hardAlpha"/>
<feOffset dy="4"/>
<feGaussianBlur stdDeviation="2"/>
<feComposite in2="hardAlpha" operator="out"/>
<feColorMatrix type="matrix" values="0 0 0 0 0 0 0 0 0 0 0 0 0 0 0 0 0 0 0.65 0"/>
<feBlend mode="normal" in2="BackgroundImageFix" result="effect1_dropShadow_1387_17743"/>
<feBlend mode="normal" in="SourceGraphic" in2="effect1_dropShadow_1387_17743" result="shape"/>
</filter>
<filter id="filter1_d_1387_17743" x="49.1562" y="55.3027" width="59.207" height="54.916" filterUnits="userSpaceOnUse" color-interpolation-filters="sRGB">
<feFlood flood-opacity="0" result="BackgroundImageFix"/>
<feColorMatrix in="SourceAlpha" type="matrix" values="0 0 0 0 0 0 0 0 0 0 0 0 0 0 0 0 0 0 127 0" result="hardAlpha"/>
<feOffset dy="4"/>
<feGaussianBlur stdDeviation="2"/>
<feComposite in2="hardAlpha" operator="out"/>
<feColorMatrix type="matrix" values="0 0 0 0 0 0 0 0 0 0 0 0 0 0 0 0 0 0 0.65 0"/>
<feBlend mode="normal" in2="BackgroundImageFix" result="effect1_dropShadow_1387_17743"/>
<feBlend mode="normal" in="SourceGraphic" in2="effect1_dropShadow_1387_17743" result="shape"/>
</filter>
</defs>
</svg>
