<svg width="18" height="18" viewBox="0 0 18 18" fill="none" xmlns="http://www.w3.org/2000/svg">
<path fill-rule="evenodd" clip-rule="evenodd" d="M8.33333 0.625C8.33333 0.279822 8.61316 0 8.95833 0C13.9059 0 17.9167 4.01078 17.9167 8.95833C17.9167 13.9059 13.9059 17.9167 8.95833 17.9167C4.01078 17.9167 0 13.9059 0 8.95833C0 8.61316 0.279822 8.33333 0.625 8.33333C0.970178 8.33333 1.25 8.61316 1.25 8.95833C1.25 13.2155 4.70114 16.6667 8.95833 16.6667C13.2155 16.6667 16.6667 13.2155 16.6667 8.95833C16.6667 4.70114 13.2155 1.25 8.95833 1.25C8.61316 1.25 8.33333 0.970178 8.33333 0.625ZM8.95833 5.83333C9.30351 5.83333 9.58333 6.11316 9.58333 6.45833V9.16667H12.2917C12.6368 9.16667 12.9167 9.44649 12.9167 9.79167C12.9167 10.1368 12.6368 10.4167 12.2917 10.4167H8.95833C8.61316 10.4167 8.33333 10.1368 8.33333 9.79167V6.45833C8.33333 6.11316 8.61316 5.83333 8.95833 5.83333Z" fill="#AAAAAA"/>
<path fill-rule="evenodd" clip-rule="evenodd" d="M6.54131 0.956283C6.66562 1.2783 6.50534 1.64012 6.18332 1.76443C6.06546 1.80992 5.94899 1.85824 5.834 1.90929C5.51851 2.04934 5.14922 1.90713 5.00916 1.59164C4.86911 1.27616 5.01132 0.906866 5.32681 0.766809C5.46056 0.70743 5.59605 0.651225 5.73317 0.598293C6.05519 0.473987 6.41701 0.634265 6.54131 0.956283ZM3.66475 2.49189C3.9028 2.74185 3.89315 3.13746 3.64319 3.37551C3.5518 3.46255 3.46254 3.5518 3.37551 3.64319C3.13746 3.89315 2.74184 3.90281 2.49189 3.66475C2.24193 3.4267 2.23228 3.03109 2.47033 2.78113C2.57139 2.67502 2.67502 2.57139 2.78113 2.47033C3.03109 2.23228 3.4267 2.24193 3.66475 2.49189ZM1.59164 5.00916C1.90713 5.14922 2.04934 5.51851 1.90929 5.834C1.85824 5.94899 1.80992 6.06546 1.76442 6.18332C1.64012 6.50534 1.2783 6.66562 0.956283 6.54131C0.634264 6.41701 0.473987 6.05519 0.598293 5.73317C0.651225 5.59605 0.707429 5.46056 0.766809 5.32681C0.906866 5.01132 1.27616 4.86911 1.59164 5.00916Z" fill="#AAAAAA"/>
</svg>
